<?xml version="1.0" encoding="UTF-8" standalone="no"?><svg xmlns="http://www.w3.org/2000/svg" xmlns:xlink="http://www.w3.org/1999/xlink" contentStyleType="text/css" height="836px" preserveAspectRatio="none" style="width:1763px;height:836px;background:#FFFFFF;" version="1.1" viewBox="0 0 1763 836" width="1763px" zoomAndPan="magnify"><defs/><g><!--MD5=[b9dc816cd47d8a1ac92d5d46056bd9fb]
class BoardState--><g id="elem_BoardState"><rect codeLine="3" fill="#23272D" height="136.0469" id="BoardState" rx="2.5" ry="2.5" style="stroke:#9E2A86;stroke-width:0.5;" width="150" x="1068" y="7"/><rect fill="#2E333A" height="32" rx="2.5" ry="2.5" style="stroke:#2E333A;stroke-width:0.5;" width="150" x="1068" y="7"/><rect fill="#2E333A" height="2.5" style="stroke:#2E333A;stroke-width:0.5;" width="150" x="1068" y="36.5"/><rect codeLine="3" fill="none" height="136.0469" id="BoardState" rx="2.5" ry="2.5" style="stroke:#9E2A86;stroke-width:0.5;" width="150" x="1068" y="7"/><ellipse cx="1104.15" cy="23" fill="#ADD1B2" rx="11" ry="11" style="stroke:#181818;stroke-width:1.0;"/><path d="M1106.9156,18.875 Q1107.0719,18.6563 1107.2594,18.5469 Q1107.4469,18.4375 1107.6656,18.4375 Q1108.0406,18.4375 1108.275,18.7031 Q1108.5094,18.9531 1108.5094,19.5625 L1108.5094,21.0156 Q1108.5094,21.625 1108.275,21.8906 Q1108.0406,22.1563 1107.6656,22.1563 Q1107.3219,22.1563 1107.1188,21.9531 Q1106.9156,21.7656 1106.8063,21.25 Q1106.7594,20.8906 1106.5719,20.7031 Q1106.2438,20.3281 1105.6344,20.1094 Q1105.025,19.8906 1104.4,19.8906 Q1103.6344,19.8906 1102.9938,20.2188 Q1102.3688,20.5469 1101.8688,21.2969 Q1101.3844,22.0469 1101.3844,23.0781 L1101.3844,24.1719 Q1101.3844,25.4063 1102.275,26.2344 Q1103.1656,27.0469 1104.7594,27.0469 Q1105.6969,27.0469 1106.3531,26.7969 Q1106.7438,26.6406 1107.1656,26.2031 Q1107.4313,25.9375 1107.5719,25.8594 Q1107.7281,25.7813 1107.9313,25.7813 Q1108.2594,25.7813 1108.5094,26.0469 Q1108.775,26.2969 1108.775,26.6406 Q1108.775,26.9844 1108.4313,27.3906 Q1107.9313,27.9688 1107.1344,28.2969 Q1106.0563,28.75 1104.7594,28.75 Q1103.2438,28.75 1102.0406,28.125 Q1101.0563,27.625 1100.3688,26.5625 Q1099.6813,25.4844 1099.6813,24.2031 L1099.6813,23.0469 Q1099.6813,21.7188 1100.2906,20.5781 Q1100.9156,19.4219 1102.0094,18.8125 Q1103.1031,18.1875 1104.3375,18.1875 Q1105.0719,18.1875 1105.7125,18.3594 Q1106.3688,18.5156 1106.9156,18.875 Z " fill="#000000"/><text fill="#F7A830" font-family="sans-serif" font-size="14" lengthAdjust="spacing" textLength="71" x="1122.85" y="28.7285">BoardState</text><line style="stroke:#9E2A86;stroke-width:0.5;" x1="1069" x2="1217" y1="39" y2="39"/><rect fill="none" height="6" style="stroke:#C82930;stroke-width:1.0;" width="6" x="1076" y="50.3047"/><text fill="#F7A830" font-family="sans-serif" font-size="14" lengthAdjust="spacing" textLength="113" x="1088" y="57.5332">boardMatrix : int[,]</text><rect fill="none" height="6" style="stroke:#C82930;stroke-width:1.0;" width="6" x="1076" y="67.9141"/><text fill="#F7A830" font-family="sans-serif" font-size="14" lengthAdjust="spacing" textLength="92" x="1088" y="75.1426">lineSums : int[]</text><rect fill="none" height="6" style="stroke:#C82930;stroke-width:1.0;" width="6" x="1076" y="85.5234"/><text fill="#F7A830" font-family="sans-serif" font-size="14" lengthAdjust="spacing" textLength="115" x="1088" y="92.752">columnSums : int[]</text><rect fill="none" height="6" style="stroke:#C82930;stroke-width:1.0;" width="6" x="1076" y="103.1328"/><text fill="#F7A830" font-family="sans-serif" font-size="14" lengthAdjust="spacing" textLength="124" x="1088" y="110.3613">diagonalSums : int[]</text><rect fill="none" height="6" style="stroke:#C82930;stroke-width:1.0;" width="6" x="1076" y="120.7422"/><text fill="#F7A830" font-family="sans-serif" font-size="14" lengthAdjust="spacing" textLength="80" x="1088" y="127.9707">turnNum : int</text><line style="stroke:#9E2A86;stroke-width:0.5;" x1="1069" x2="1217" y1="135.0469" y2="135.0469"/></g><!--MD5=[48e88c162c5505361c629eb6ff3812a8]
class GameState--><g id="elem_GameState"><rect codeLine="11" fill="#23272D" height="136.0469" id="GameState" rx="2.5" ry="2.5" style="stroke:#9E2A86;stroke-width:0.5;" width="161" x="1338.5" y="7"/><rect fill="#2E333A" height="32" rx="2.5" ry="2.5" style="stroke:#2E333A;stroke-width:0.5;" width="161" x="1338.5" y="7"/><rect fill="#2E333A" height="2.5" style="stroke:#2E333A;stroke-width:0.5;" width="161" x="1338.5" y="36.5"/><rect codeLine="11" fill="none" height="136.0469" id="GameState" rx="2.5" ry="2.5" style="stroke:#9E2A86;stroke-width:0.5;" width="161" x="1338.5" y="7"/><ellipse cx="1379.6" cy="23" fill="#ADD1B2" rx="11" ry="11" style="stroke:#181818;stroke-width:1.0;"/><path d="M1382.3656,18.875 Q1382.5219,18.6563 1382.7094,18.5469 Q1382.8969,18.4375 1383.1156,18.4375 Q1383.4906,18.4375 1383.725,18.7031 Q1383.9594,18.9531 1383.9594,19.5625 L1383.9594,21.0156 Q1383.9594,21.625 1383.725,21.8906 Q1383.4906,22.1563 1383.1156,22.1563 Q1382.7719,22.1563 1382.5688,21.9531 Q1382.3656,21.7656 1382.2563,21.25 Q1382.2094,20.8906 1382.0219,20.7031 Q1381.6938,20.3281 1381.0844,20.1094 Q1380.475,19.8906 1379.85,19.8906 Q1379.0844,19.8906 1378.4438,20.2188 Q1377.8188,20.5469 1377.3188,21.2969 Q1376.8344,22.0469 1376.8344,23.0781 L1376.8344,24.1719 Q1376.8344,25.4063 1377.725,26.2344 Q1378.6156,27.0469 1380.2094,27.0469 Q1381.1469,27.0469 1381.8031,26.7969 Q1382.1938,26.6406 1382.6156,26.2031 Q1382.8813,25.9375 1383.0219,25.8594 Q1383.1781,25.7813 1383.3813,25.7813 Q1383.7094,25.7813 1383.9594,26.0469 Q1384.225,26.2969 1384.225,26.6406 Q1384.225,26.9844 1383.8813,27.3906 Q1383.3813,27.9688 1382.5844,28.2969 Q1381.5063,28.75 1380.2094,28.75 Q1378.6938,28.75 1377.4906,28.125 Q1376.5063,27.625 1375.8188,26.5625 Q1375.1313,25.4844 1375.1313,24.2031 L1375.1313,23.0469 Q1375.1313,21.7188 1375.7406,20.5781 Q1376.3656,19.4219 1377.4594,18.8125 Q1378.5531,18.1875 1379.7875,18.1875 Q1380.5219,18.1875 1381.1625,18.3594 Q1381.8188,18.5156 1382.3656,18.875 Z " fill="#000000"/><text fill="#F7A830" font-family="sans-serif" font-size="14" lengthAdjust="spacing" textLength="71" x="1399.4" y="28.7285">GameState</text><line style="stroke:#9E2A86;stroke-width:0.5;" x1="1339.5" x2="1498.5" y1="39" y2="39"/><text fill="#F7A830" font-family="sans-serif" font-size="14" lengthAdjust="spacing" textLength="149" x="1344.5" y="57.5332">gameType : GameType</text><text fill="#F7A830" font-family="sans-serif" font-size="14" lengthAdjust="spacing" textLength="116" x="1344.5" y="75.1426">singlePlayer : bool</text><text fill="#F7A830" font-family="sans-serif" font-size="14" lengthAdjust="spacing" textLength="105" x="1344.5" y="92.752">gameOver : bool</text><text fill="#F7A830" font-family="sans-serif" font-size="14" lengthAdjust="spacing" textLength="108" x="1344.5" y="110.3613">playerTurn : bool</text><text fill="#F7A830" font-family="sans-serif" font-size="14" lengthAdjust="spacing" textLength="146" x="1344.5" y="127.9707">animationPlaying : bool</text><line style="stroke:#9E2A86;stroke-width:0.5;" x1="1339.5" x2="1498.5" y1="135.0469" y2="135.0469"/></g><!--MD5=[351e6187e19f8d3cd8e20f98c583db53]
class GameType--><g id="elem_GameType"><rect codeLine="20" fill="#23272D" height="100.8281" id="GameType" rx="2.5" ry="2.5" style="stroke:#9E2A86;stroke-width:0.5;" width="107" x="1365.5" y="204"/><rect fill="#2E333A" height="32" rx="2.5" ry="2.5" style="stroke:#2E333A;stroke-width:0.5;" width="107" x="1365.5" y="204"/><rect fill="#2E333A" height="2.5" style="stroke:#2E333A;stroke-width:0.5;" width="107" x="1365.5" y="233.5"/><rect codeLine="20" fill="none" height="100.8281" id="GameType" rx="2.5" ry="2.5" style="stroke:#9E2A86;stroke-width:0.5;" width="107" x="1365.5" y="204"/><ellipse cx="1382.75" cy="220" fill="#EB937F" rx="11" ry="11" style="stroke:#181818;stroke-width:1.0;"/><path d="M1381.6094,220.7969 L1381.6094,223.2969 L1385.9375,223.2969 L1385.9375,222.375 Q1385.9375,221.7656 1386.1719,221.5 Q1386.4219,221.2344 1386.7969,221.2344 Q1387.1719,221.2344 1387.4063,221.5 Q1387.6406,221.7656 1387.6406,222.375 L1387.6406,225 L1379.6406,225 Q1379.0156,225 1378.75,224.7656 Q1378.5,224.5313 1378.5,224.1406 Q1378.5,223.7656 1378.7656,223.5313 Q1379.0313,223.2969 1379.6406,223.2969 L1379.9063,223.2969 L1379.9063,216.6406 L1379.6406,216.6406 Q1379.0156,216.6406 1378.75,216.4063 Q1378.5,216.1719 1378.5,215.7813 Q1378.5,215.4063 1378.75,215.1719 Q1379.0156,214.9375 1379.6406,214.9375 L1387.2656,214.9375 L1387.2656,217.5313 Q1387.2656,218.1406 1387.0313,218.4063 Q1386.8125,218.6563 1386.4219,218.6563 Q1386.0469,218.6563 1385.8125,218.4063 Q1385.5781,218.1406 1385.5781,217.5313 L1385.5781,216.6406 L1381.6094,216.6406 L1381.6094,219.0938 L1383.0938,219.0938 Q1383.0938,218.4375 1383.2188,218.25 Q1383.4844,217.8438 1383.9531,217.8438 Q1384.3281,217.8438 1384.5625,218.1094 Q1384.7969,218.3594 1384.7969,218.9688 L1384.7969,220.9375 Q1384.7969,221.4844 1384.6719,221.6719 Q1384.4063,222.0625 1383.9531,222.0625 Q1383.4844,222.0625 1383.2188,221.6563 Q1383.0938,221.4688 1383.0938,220.7969 L1381.6094,220.7969 Z " fill="#000000"/><text fill="#F7A830" font-family="sans-serif" font-size="14" lengthAdjust="spacing" textLength="70" x="1397.25" y="225.7285">GameType</text><line style="stroke:#9E2A86;stroke-width:0.5;" x1="1366.5" x2="1471.5" y1="236" y2="236"/><text fill="#F7A830" font-family="sans-serif" font-size="14" lengthAdjust="spacing" textLength="68" x="1371.5" y="254.5332">TicTacToe</text><text fill="#F7A830" font-family="sans-serif" font-size="14" lengthAdjust="spacing" textLength="75" x="1371.5" y="272.1426">TickOatTwo</text><text fill="#F7A830" font-family="sans-serif" font-size="14" lengthAdjust="spacing" textLength="95" x="1371.5" y="289.752">WildTicTacToe</text><line style="stroke:#9E2A86;stroke-width:0.5;" x1="1366.5" x2="1471.5" y1="296.8281" y2="296.8281"/></g><!--MD5=[3014018ed37e6d0124def9f7640e1271]
class GameOrchestrator--><g id="elem_GameOrchestrator"><rect codeLine="26" fill="#23272D" height="83.2188" id="GameOrchestrator" rx="2.5" ry="2.5" style="stroke:#9E2A86;stroke-width:0.5;" width="150" x="797" y="33.5"/><rect fill="#2E333A" height="32" rx="2.5" ry="2.5" style="stroke:#2E333A;stroke-width:0.5;" width="150" x="797" y="33.5"/><rect fill="#2E333A" height="2.5" style="stroke:#2E333A;stroke-width:0.5;" width="150" x="797" y="63"/><rect codeLine="26" fill="none" height="83.2188" id="GameOrchestrator" rx="2.5" ry="2.5" style="stroke:#9E2A86;stroke-width:0.5;" width="150" x="797" y="33.5"/><ellipse cx="812" cy="49.5" fill="#ADD1B2" rx="11" ry="11" style="stroke:#181818;stroke-width:1.0;"/><path d="M814.7656,45.375 Q814.9219,45.1563 815.1094,45.0469 Q815.2969,44.9375 815.5156,44.9375 Q815.8906,44.9375 816.125,45.2031 Q816.3594,45.4531 816.3594,46.0625 L816.3594,47.5156 Q816.3594,48.125 816.125,48.3906 Q815.8906,48.6563 815.5156,48.6563 Q815.1719,48.6563 814.9688,48.4531 Q814.7656,48.2656 814.6563,47.75 Q814.6094,47.3906 814.4219,47.2031 Q814.0938,46.8281 813.4844,46.6094 Q812.875,46.3906 812.25,46.3906 Q811.4844,46.3906 810.8438,46.7188 Q810.2188,47.0469 809.7188,47.7969 Q809.2344,48.5469 809.2344,49.5781 L809.2344,50.6719 Q809.2344,51.9063 810.125,52.7344 Q811.0156,53.5469 812.6094,53.5469 Q813.5469,53.5469 814.2031,53.2969 Q814.5938,53.1406 815.0156,52.7031 Q815.2813,52.4375 815.4219,52.3594 Q815.5781,52.2813 815.7813,52.2813 Q816.1094,52.2813 816.3594,52.5469 Q816.625,52.7969 816.625,53.1406 Q816.625,53.4844 816.2813,53.8906 Q815.7813,54.4688 814.9844,54.7969 Q813.9063,55.25 812.6094,55.25 Q811.0938,55.25 809.8906,54.625 Q808.9063,54.125 808.2188,53.0625 Q807.5313,51.9844 807.5313,50.7031 L807.5313,49.5469 Q807.5313,48.2188 808.1406,47.0781 Q808.7656,45.9219 809.8594,45.3125 Q810.9531,44.6875 812.1875,44.6875 Q812.9219,44.6875 813.5625,44.8594 Q814.2188,45.0156 814.7656,45.375 Z " fill="#000000"/><text fill="#F7A830" font-family="sans-serif" font-size="14" lengthAdjust="spacing" textLength="118" x="826" y="55.2285">GameOrchestrator</text><line style="stroke:#9E2A86;stroke-width:0.5;" x1="798" x2="946" y1="65.5" y2="65.5"/><line style="stroke:#9E2A86;stroke-width:0.5;" x1="798" x2="946" y1="73.5" y2="73.5"/><ellipse cx="808" cy="87.8047" fill="#84BE84" rx="3" ry="3" style="stroke:#038048;stroke-width:1.0;"/><text fill="#F7A830" font-family="sans-serif" font-size="14" lengthAdjust="spacing" textLength="40" x="817" y="92.0332">Start()</text><ellipse cx="808" cy="105.4141" fill="#84BE84" rx="3" ry="3" style="stroke:#038048;stroke-width:1.0;"/><text fill="#F7A830" font-family="sans-serif" font-size="14" lengthAdjust="spacing" textLength="55" x="817" y="109.6426">Update()</text></g><!--MD5=[ca2dff4da499e32945ccc1306141f1fa]
class BoardStateUpdater--><g id="elem_BoardStateUpdater"><rect codeLine="31" fill="#23272D" height="65.6094" id="BoardStateUpdater" rx="2.5" ry="2.5" style="stroke:#9E2A86;stroke-width:0.5;" width="153" x="795.5" y="221.5"/><rect fill="#2E333A" height="32" rx="2.5" ry="2.5" style="stroke:#2E333A;stroke-width:0.5;" width="153" x="795.5" y="221.5"/><rect fill="#2E333A" height="2.5" style="stroke:#2E333A;stroke-width:0.5;" width="153" x="795.5" y="251"/><rect codeLine="31" fill="none" height="65.6094" id="BoardStateUpdater" rx="2.5" ry="2.5" style="stroke:#9E2A86;stroke-width:0.5;" width="153" x="795.5" y="221.5"/><ellipse cx="810.5" cy="237.5" fill="#ADD1B2" rx="11" ry="11" style="stroke:#181818;stroke-width:1.0;"/><path d="M813.2656,233.375 Q813.4219,233.1563 813.6094,233.0469 Q813.7969,232.9375 814.0156,232.9375 Q814.3906,232.9375 814.625,233.2031 Q814.8594,233.4531 814.8594,234.0625 L814.8594,235.5156 Q814.8594,236.125 814.625,236.3906 Q814.3906,236.6563 814.0156,236.6563 Q813.6719,236.6563 813.4688,236.4531 Q813.2656,236.2656 813.1563,235.75 Q813.1094,235.3906 812.9219,235.2031 Q812.5938,234.8281 811.9844,234.6094 Q811.375,234.3906 810.75,234.3906 Q809.9844,234.3906 809.3438,234.7188 Q808.7188,235.0469 808.2188,235.7969 Q807.7344,236.5469 807.7344,237.5781 L807.7344,238.6719 Q807.7344,239.9063 808.625,240.7344 Q809.5156,241.5469 811.1094,241.5469 Q812.0469,241.5469 812.7031,241.2969 Q813.0938,241.1406 813.5156,240.7031 Q813.7813,240.4375 813.9219,240.3594 Q814.0781,240.2813 814.2813,240.2813 Q814.6094,240.2813 814.8594,240.5469 Q815.125,240.7969 815.125,241.1406 Q815.125,241.4844 814.7813,241.8906 Q814.2813,242.4688 813.4844,242.7969 Q812.4063,243.25 811.1094,243.25 Q809.5938,243.25 808.3906,242.625 Q807.4063,242.125 806.7188,241.0625 Q806.0313,239.9844 806.0313,238.7031 L806.0313,237.5469 Q806.0313,236.2188 806.6406,235.0781 Q807.2656,233.9219 808.3594,233.3125 Q809.4531,232.6875 810.6875,232.6875 Q811.4219,232.6875 812.0625,232.8594 Q812.7188,233.0156 813.2656,233.375 Z " fill="#000000"/><text fill="#F7A830" font-family="sans-serif" font-size="14" lengthAdjust="spacing" textLength="121" x="824.5" y="243.2285">BoardStateUpdater</text><line style="stroke:#9E2A86;stroke-width:0.5;" x1="796.5" x2="947.5" y1="253.5" y2="253.5"/><line style="stroke:#9E2A86;stroke-width:0.5;" x1="796.5" x2="947.5" y1="261.5" y2="261.5"/><ellipse cx="806.5" cy="275.8047" fill="#84BE84" rx="3" ry="3" style="stroke:#038048;stroke-width:1.0;"/><text fill="#F7A830" font-family="sans-serif" font-size="14" lengthAdjust="spacing" textLength="54" x="815.5" y="280.0332">update()</text></g><!--MD5=[a24714f16d2d4b65f104154a73f00daf]
class ComputerMoveCalculator--><g id="elem_ComputerMoveCalculator"><rect codeLine="36" fill="#23272D" height="65.6094" id="ComputerMoveCalculator" rx="2.5" ry="2.5" style="stroke:#9E2A86;stroke-width:0.5;" width="192" x="535" y="383"/><rect fill="#2E333A" height="32" rx="2.5" ry="2.5" style="stroke:#2E333A;stroke-width:0.5;" width="192" x="535" y="383"/><rect fill="#2E333A" height="2.5" style="stroke:#2E333A;stroke-width:0.5;" width="192" x="535" y="412.5"/><rect codeLine="36" fill="none" height="65.6094" id="ComputerMoveCalculator" rx="2.5" ry="2.5" style="stroke:#9E2A86;stroke-width:0.5;" width="192" x="535" y="383"/><ellipse cx="550" cy="399" fill="#B4A7E5" rx="11" ry="11" style="stroke:#181818;stroke-width:1.0;"/><path d="M550.9531,395.6406 L550.9531,402.2969 L552.6719,402.2969 Q553.2813,402.2969 553.5469,402.5313 Q553.8125,402.7656 553.8125,403.1563 Q553.8125,403.5313 553.5469,403.7656 Q553.2813,404 552.6719,404 L547.5313,404 Q546.9219,404 546.6563,403.7656 Q546.3906,403.5313 546.3906,403.1406 Q546.3906,402.7656 546.6563,402.5313 Q546.9219,402.2969 547.5313,402.2969 L549.25,402.2969 L549.25,395.6406 L547.5313,395.6406 Q546.9219,395.6406 546.6563,395.4063 Q546.3906,395.1719 546.3906,394.7813 Q546.3906,394.4063 546.6563,394.1719 Q546.9219,393.9375 547.5313,393.9375 L552.6719,393.9375 Q553.2813,393.9375 553.5469,394.1719 Q553.8125,394.4063 553.8125,394.7813 Q553.8125,395.1719 553.5469,395.4063 Q553.2813,395.6406 552.6719,395.6406 L550.9531,395.6406 Z " fill="#000000"/><text fill="#F7A830" font-family="sans-serif" font-size="14" font-style="italic" lengthAdjust="spacing" textLength="160" x="564" y="404.7285">ComputerMoveCalculator</text><line style="stroke:#9E2A86;stroke-width:0.5;" x1="536" x2="726" y1="415" y2="415"/><line style="stroke:#9E2A86;stroke-width:0.5;" x1="536" x2="726" y1="423" y2="423"/><ellipse cx="546" cy="437.3047" fill="#84BE84" rx="3" ry="3" style="stroke:#038048;stroke-width:1.0;"/><text fill="#F7A830" font-family="sans-serif" font-size="14" lengthAdjust="spacing" textLength="127" x="555" y="441.5332">calculate() : Vector2</text></g><!--MD5=[8edcc9a10a5faa32ed11e88d4c416f04]
class HardComputerMoveCalc--><g id="elem_HardComputerMoveCalc"><rect codeLine="40" fill="#23272D" height="65.6094" id="HardComputerMoveCalc" rx="2.5" ry="2.5" style="stroke:#9E2A86;stroke-width:0.5;" width="186" x="538" y="527"/><rect fill="#2E333A" height="32" rx="2.5" ry="2.5" style="stroke:#2E333A;stroke-width:0.5;" width="186" x="538" y="527"/><rect fill="#2E333A" height="2.5" style="stroke:#2E333A;stroke-width:0.5;" width="186" x="538" y="556.5"/><rect codeLine="40" fill="none" height="65.6094" id="HardComputerMoveCalc" rx="2.5" ry="2.5" style="stroke:#9E2A86;stroke-width:0.5;" width="186" x="538" y="527"/><ellipse cx="553" cy="543" fill="#ADD1B2" rx="11" ry="11" style="stroke:#181818;stroke-width:1.0;"/><path d="M555.7656,538.875 Q555.9219,538.6563 556.1094,538.5469 Q556.2969,538.4375 556.5156,538.4375 Q556.8906,538.4375 557.125,538.7031 Q557.3594,538.9531 557.3594,539.5625 L557.3594,541.0156 Q557.3594,541.625 557.125,541.8906 Q556.8906,542.1563 556.5156,542.1563 Q556.1719,542.1563 555.9688,541.9531 Q555.7656,541.7656 555.6563,541.25 Q555.6094,540.8906 555.4219,540.7031 Q555.0938,540.3281 554.4844,540.1094 Q553.875,539.8906 553.25,539.8906 Q552.4844,539.8906 551.8438,540.2188 Q551.2188,540.5469 550.7188,541.2969 Q550.2344,542.0469 550.2344,543.0781 L550.2344,544.1719 Q550.2344,545.4063 551.125,546.2344 Q552.0156,547.0469 553.6094,547.0469 Q554.5469,547.0469 555.2031,546.7969 Q555.5938,546.6406 556.0156,546.2031 Q556.2813,545.9375 556.4219,545.8594 Q556.5781,545.7813 556.7813,545.7813 Q557.1094,545.7813 557.3594,546.0469 Q557.625,546.2969 557.625,546.6406 Q557.625,546.9844 557.2813,547.3906 Q556.7813,547.9688 555.9844,548.2969 Q554.9063,548.75 553.6094,548.75 Q552.0938,548.75 550.8906,548.125 Q549.9063,547.625 549.2188,546.5625 Q548.5313,545.4844 548.5313,544.2031 L548.5313,543.0469 Q548.5313,541.7188 549.1406,540.5781 Q549.7656,539.4219 550.8594,538.8125 Q551.9531,538.1875 553.1875,538.1875 Q553.9219,538.1875 554.5625,538.3594 Q555.2188,538.5156 555.7656,538.875 Z " fill="#000000"/><text fill="#F7A830" font-family="sans-serif" font-size="14" lengthAdjust="spacing" textLength="154" x="567" y="548.7285">HardComputerMoveCalc</text><line style="stroke:#9E2A86;stroke-width:0.5;" x1="539" x2="723" y1="559" y2="559"/><line style="stroke:#9E2A86;stroke-width:0.5;" x1="539" x2="723" y1="567" y2="567"/><ellipse cx="549" cy="581.3047" fill="#84BE84" rx="3" ry="3" style="stroke:#038048;stroke-width:1.0;"/><text fill="#F7A830" font-family="sans-serif" font-size="14" lengthAdjust="spacing" textLength="127" x="558" y="585.5332">calculate() : Vector2</text></g><!--MD5=[c2948833806eed8c18e7dde2687779fb]
class PossibleMovesCalculator--><g id="elem_PossibleMovesCalculator"><rect codeLine="44" fill="#23272D" height="65.6094" id="PossibleMovesCalculator" rx="2.5" ry="2.5" style="stroke:#9E2A86;stroke-width:0.5;" width="191" x="386.5" y="654"/><rect fill="#2E333A" height="32" rx="2.5" ry="2.5" style="stroke:#2E333A;stroke-width:0.5;" width="191" x="386.5" y="654"/><rect fill="#2E333A" height="2.5" style="stroke:#2E333A;stroke-width:0.5;" width="191" x="386.5" y="683.5"/><rect codeLine="44" fill="none" height="65.6094" id="PossibleMovesCalculator" rx="2.5" ry="2.5" style="stroke:#9E2A86;stroke-width:0.5;" width="191" x="386.5" y="654"/><ellipse cx="401.95" cy="670" fill="#B4A7E5" rx="11" ry="11" style="stroke:#181818;stroke-width:1.0;"/><path d="M402.9031,666.6406 L402.9031,673.2969 L404.6219,673.2969 Q405.2313,673.2969 405.4969,673.5313 Q405.7625,673.7656 405.7625,674.1563 Q405.7625,674.5313 405.4969,674.7656 Q405.2313,675 404.6219,675 L399.4813,675 Q398.8719,675 398.6063,674.7656 Q398.3406,674.5313 398.3406,674.1406 Q398.3406,673.7656 398.6063,673.5313 Q398.8719,673.2969 399.4813,673.2969 L401.2,673.2969 L401.2,666.6406 L399.4813,666.6406 Q398.8719,666.6406 398.6063,666.4063 Q398.3406,666.1719 398.3406,665.7813 Q398.3406,665.4063 398.6063,665.1719 Q398.8719,664.9375 399.4813,664.9375 L404.6219,664.9375 Q405.2313,664.9375 405.4969,665.1719 Q405.7625,665.4063 405.7625,665.7813 Q405.7625,666.1719 405.4969,666.4063 Q405.2313,666.6406 404.6219,666.6406 L402.9031,666.6406 Z " fill="#000000"/><text fill="#F7A830" font-family="sans-serif" font-size="14" font-style="italic" lengthAdjust="spacing" textLength="158" x="416.05" y="675.7285">PossibleMovesCalculator</text><line style="stroke:#9E2A86;stroke-width:0.5;" x1="387.5" x2="576.5" y1="686" y2="686"/><line style="stroke:#9E2A86;stroke-width:0.5;" x1="387.5" x2="576.5" y1="694" y2="694"/><ellipse cx="397.5" cy="708.3047" fill="#84BE84" rx="3" ry="3" style="stroke:#038048;stroke-width:1.0;"/><text fill="#F7A830" font-family="sans-serif" font-size="14" lengthAdjust="spacing" textLength="165" x="406.5" y="712.5332">calculate() : List&lt;Vector2&gt;</text></g><!--MD5=[f58fe532272f7b3185e43e373795c306]
class DefaultMovesCalculator--><g id="elem_DefaultMovesCalculator"><rect codeLine="48" fill="#23272D" height="48" id="DefaultMovesCalculator" rx="2.5" ry="2.5" style="stroke:#9E2A86;stroke-width:0.5;" width="182" x="7" y="781"/><rect fill="#2E333A" height="32" rx="2.5" ry="2.5" style="stroke:#2E333A;stroke-width:0.5;" width="182" x="7" y="781"/><rect fill="#2E333A" height="2.5" style="stroke:#2E333A;stroke-width:0.5;" width="182" x="7" y="810.5"/><rect codeLine="48" fill="none" height="48" id="DefaultMovesCalculator" rx="2.5" ry="2.5" style="stroke:#9E2A86;stroke-width:0.5;" width="182" x="7" y="781"/><ellipse cx="22" cy="797" fill="#ADD1B2" rx="11" ry="11" style="stroke:#181818;stroke-width:1.0;"/><path d="M24.7656,792.875 Q24.9219,792.6563 25.1094,792.5469 Q25.2969,792.4375 25.5156,792.4375 Q25.8906,792.4375 26.125,792.7031 Q26.3594,792.9531 26.3594,793.5625 L26.3594,795.0156 Q26.3594,795.625 26.125,795.8906 Q25.8906,796.1563 25.5156,796.1563 Q25.1719,796.1563 24.9688,795.9531 Q24.7656,795.7656 24.6563,795.25 Q24.6094,794.8906 24.4219,794.7031 Q24.0938,794.3281 23.4844,794.1094 Q22.875,793.8906 22.25,793.8906 Q21.4844,793.8906 20.8438,794.2188 Q20.2188,794.5469 19.7188,795.2969 Q19.2344,796.0469 19.2344,797.0781 L19.2344,798.1719 Q19.2344,799.4063 20.125,800.2344 Q21.0156,801.0469 22.6094,801.0469 Q23.5469,801.0469 24.2031,800.7969 Q24.5938,800.6406 25.0156,800.2031 Q25.2813,799.9375 25.4219,799.8594 Q25.5781,799.7813 25.7813,799.7813 Q26.1094,799.7813 26.3594,800.0469 Q26.625,800.2969 26.625,800.6406 Q26.625,800.9844 26.2813,801.3906 Q25.7813,801.9688 24.9844,802.2969 Q23.9063,802.75 22.6094,802.75 Q21.0938,802.75 19.8906,802.125 Q18.9063,801.625 18.2188,800.5625 Q17.5313,799.4844 17.5313,798.2031 L17.5313,797.0469 Q17.5313,795.7188 18.1406,794.5781 Q18.7656,793.4219 19.8594,792.8125 Q20.9531,792.1875 22.1875,792.1875 Q22.9219,792.1875 23.5625,792.3594 Q24.2188,792.5156 24.7656,792.875 Z " fill="#000000"/><text fill="#F7A830" font-family="sans-serif" font-size="14" lengthAdjust="spacing" textLength="150" x="36" y="802.7285">DefaultMovesCalculator</text><line style="stroke:#9E2A86;stroke-width:0.5;" x1="8" x2="188" y1="813" y2="813"/><line style="stroke:#9E2A86;stroke-width:0.5;" x1="8" x2="188" y1="821" y2="821"/></g><!--MD5=[d9f06b599e9d51a77c50b47bf3e9c53d]
class WildMovesCalculator--><g id="elem_WildMovesCalculator"><rect codeLine="51" fill="#23272D" height="48" id="WildMovesCalculator" rx="2.5" ry="2.5" style="stroke:#9E2A86;stroke-width:0.5;" width="164" x="224" y="781"/><rect fill="#2E333A" height="32" rx="2.5" ry="2.5" style="stroke:#2E333A;stroke-width:0.5;" width="164" x="224" y="781"/><rect fill="#2E333A" height="2.5" style="stroke:#2E333A;stroke-width:0.5;" width="164" x="224" y="810.5"/><rect codeLine="51" fill="none" height="48" id="WildMovesCalculator" rx="2.5" ry="2.5" style="stroke:#9E2A86;stroke-width:0.5;" width="164" x="224" y="781"/><ellipse cx="239" cy="797" fill="#ADD1B2" rx="11" ry="11" style="stroke:#181818;stroke-width:1.0;"/><path d="M241.7656,792.875 Q241.9219,792.6563 242.1094,792.5469 Q242.2969,792.4375 242.5156,792.4375 Q242.8906,792.4375 243.125,792.7031 Q243.3594,792.9531 243.3594,793.5625 L243.3594,795.0156 Q243.3594,795.625 243.125,795.8906 Q242.8906,796.1563 242.5156,796.1563 Q242.1719,796.1563 241.9688,795.9531 Q241.7656,795.7656 241.6563,795.25 Q241.6094,794.8906 241.4219,794.7031 Q241.0938,794.3281 240.4844,794.1094 Q239.875,793.8906 239.25,793.8906 Q238.4844,793.8906 237.8438,794.2188 Q237.2188,794.5469 236.7188,795.2969 Q236.2344,796.0469 236.2344,797.0781 L236.2344,798.1719 Q236.2344,799.4063 237.125,800.2344 Q238.0156,801.0469 239.6094,801.0469 Q240.5469,801.0469 241.2031,800.7969 Q241.5938,800.6406 242.0156,800.2031 Q242.2813,799.9375 242.4219,799.8594 Q242.5781,799.7813 242.7813,799.7813 Q243.1094,799.7813 243.3594,800.0469 Q243.625,800.2969 243.625,800.6406 Q243.625,800.9844 243.2813,801.3906 Q242.7813,801.9688 241.9844,802.2969 Q240.9063,802.75 239.6094,802.75 Q238.0938,802.75 236.8906,802.125 Q235.9063,801.625 235.2188,800.5625 Q234.5313,799.4844 234.5313,798.2031 L234.5313,797.0469 Q234.5313,795.7188 235.1406,794.5781 Q235.7656,793.4219 236.8594,792.8125 Q237.9531,792.1875 239.1875,792.1875 Q239.9219,792.1875 240.5625,792.3594 Q241.2188,792.5156 241.7656,792.875 Z " fill="#000000"/><text fill="#F7A830" font-family="sans-serif" font-size="14" lengthAdjust="spacing" textLength="132" x="253" y="802.7285">WildMovesCalculator</text><line style="stroke:#9E2A86;stroke-width:0.5;" x1="225" x2="387" y1="813" y2="813"/><line style="stroke:#9E2A86;stroke-width:0.5;" x1="225" x2="387" y1="821" y2="821"/></g><!--MD5=[af515f2ce1f32e2e826c033b43bb0f58]
class TickOatMovesCalculator--><g id="elem_TickOatMovesCalculator"><rect codeLine="54" fill="#23272D" height="48" id="TickOatMovesCalculator" rx="2.5" ry="2.5" style="stroke:#9E2A86;stroke-width:0.5;" width="186" x="423" y="781"/><rect fill="#2E333A" height="32" rx="2.5" ry="2.5" style="stroke:#2E333A;stroke-width:0.5;" width="186" x="423" y="781"/><rect fill="#2E333A" height="2.5" style="stroke:#2E333A;stroke-width:0.5;" width="186" x="423" y="810.5"/><rect codeLine="54" fill="none" height="48" id="TickOatMovesCalculator" rx="2.5" ry="2.5" style="stroke:#9E2A86;stroke-width:0.5;" width="186" x="423" y="781"/><ellipse cx="438" cy="797" fill="#ADD1B2" rx="11" ry="11" style="stroke:#181818;stroke-width:1.0;"/><path d="M440.7656,792.875 Q440.9219,792.6563 441.1094,792.5469 Q441.2969,792.4375 441.5156,792.4375 Q441.8906,792.4375 442.125,792.7031 Q442.3594,792.9531 442.3594,793.5625 L442.3594,795.0156 Q442.3594,795.625 442.125,795.8906 Q441.8906,796.1563 441.5156,796.1563 Q441.1719,796.1563 440.9688,795.9531 Q440.7656,795.7656 440.6563,795.25 Q440.6094,794.8906 440.4219,794.7031 Q440.0938,794.3281 439.4844,794.1094 Q438.875,793.8906 438.25,793.8906 Q437.4844,793.8906 436.8438,794.2188 Q436.2188,794.5469 435.7188,795.2969 Q435.2344,796.0469 435.2344,797.0781 L435.2344,798.1719 Q435.2344,799.4063 436.125,800.2344 Q437.0156,801.0469 438.6094,801.0469 Q439.5469,801.0469 440.2031,800.7969 Q440.5938,800.6406 441.0156,800.2031 Q441.2813,799.9375 441.4219,799.8594 Q441.5781,799.7813 441.7813,799.7813 Q442.1094,799.7813 442.3594,800.0469 Q442.625,800.2969 442.625,800.6406 Q442.625,800.9844 442.2813,801.3906 Q441.7813,801.9688 440.9844,802.2969 Q439.9063,802.75 438.6094,802.75 Q437.0938,802.75 435.8906,802.125 Q434.9063,801.625 434.2188,800.5625 Q433.5313,799.4844 433.5313,798.2031 L433.5313,797.0469 Q433.5313,795.7188 434.1406,794.5781 Q434.7656,793.4219 435.8594,792.8125 Q436.9531,792.1875 438.1875,792.1875 Q438.9219,792.1875 439.5625,792.3594 Q440.2188,792.5156 440.7656,792.875 Z " fill="#000000"/><text fill="#F7A830" font-family="sans-serif" font-size="14" lengthAdjust="spacing" textLength="154" x="452" y="802.7285">TickOatMovesCalculator</text><line style="stroke:#9E2A86;stroke-width:0.5;" x1="424" x2="608" y1="813" y2="813"/><line style="stroke:#9E2A86;stroke-width:0.5;" x1="424" x2="608" y1="821" y2="821"/></g><!--MD5=[dd86cef79f7056cfef6035722b675901]
class BoardStateChecker--><g id="elem_BoardStateChecker"><rect codeLine="57" fill="#23272D" height="65.6094" id="BoardStateChecker" rx="2.5" ry="2.5" style="stroke:#9E2A86;stroke-width:0.5;" width="157" x="701.5" y="654"/><rect fill="#2E333A" height="32" rx="2.5" ry="2.5" style="stroke:#2E333A;stroke-width:0.5;" width="157" x="701.5" y="654"/><rect fill="#2E333A" height="2.5" style="stroke:#2E333A;stroke-width:0.5;" width="157" x="701.5" y="683.5"/><rect codeLine="57" fill="none" height="65.6094" id="BoardStateChecker" rx="2.5" ry="2.5" style="stroke:#9E2A86;stroke-width:0.5;" width="157" x="701.5" y="654"/><ellipse cx="716.5" cy="670" fill="#B4A7E5" rx="11" ry="11" style="stroke:#181818;stroke-width:1.0;"/><path d="M717.4531,666.6406 L717.4531,673.2969 L719.1719,673.2969 Q719.7813,673.2969 720.0469,673.5313 Q720.3125,673.7656 720.3125,674.1563 Q720.3125,674.5313 720.0469,674.7656 Q719.7813,675 719.1719,675 L714.0313,675 Q713.4219,675 713.1563,674.7656 Q712.8906,674.5313 712.8906,674.1406 Q712.8906,673.7656 713.1563,673.5313 Q713.4219,673.2969 714.0313,673.2969 L715.75,673.2969 L715.75,666.6406 L714.0313,666.6406 Q713.4219,666.6406 713.1563,666.4063 Q712.8906,666.1719 712.8906,665.7813 Q712.8906,665.4063 713.1563,665.1719 Q713.4219,664.9375 714.0313,664.9375 L719.1719,664.9375 Q719.7813,664.9375 720.0469,665.1719 Q720.3125,665.4063 720.3125,665.7813 Q720.3125,666.1719 720.0469,666.4063 Q719.7813,666.6406 719.1719,666.6406 L717.4531,666.6406 Z " fill="#000000"/><text fill="#F7A830" font-family="sans-serif" font-size="14" font-style="italic" lengthAdjust="spacing" textLength="125" x="730.5" y="675.7285">BoardStateChecker</text><line style="stroke:#9E2A86;stroke-width:0.5;" x1="702.5" x2="857.5" y1="686" y2="686"/><line style="stroke:#9E2A86;stroke-width:0.5;" x1="702.5" x2="857.5" y1="694" y2="694"/><ellipse cx="712.5" cy="708.3047" fill="#84BE84" rx="3" ry="3" style="stroke:#038048;stroke-width:1.0;"/><text fill="#F7A830" font-family="sans-serif" font-size="14" lengthAdjust="spacing" textLength="74" x="721.5" y="712.5332">check() : int</text></g><!--MD5=[1e58be155cd2241e2aa59dec4762cb2b]
class DefaultBoardStateChecker--><g id="elem_DefaultBoardStateChecker"><rect codeLine="61" fill="#23272D" height="48" id="DefaultBoardStateChecker" rx="2.5" ry="2.5" style="stroke:#9E2A86;stroke-width:0.5;" width="201" x="644.5" y="781"/><rect fill="#2E333A" height="32" rx="2.5" ry="2.5" style="stroke:#2E333A;stroke-width:0.5;" width="201" x="644.5" y="781"/><rect fill="#2E333A" height="2.5" style="stroke:#2E333A;stroke-width:0.5;" width="201" x="644.5" y="810.5"/><rect codeLine="61" fill="none" height="48" id="DefaultBoardStateChecker" rx="2.5" ry="2.5" style="stroke:#9E2A86;stroke-width:0.5;" width="201" x="644.5" y="781"/><ellipse cx="659.5" cy="797" fill="#ADD1B2" rx="11" ry="11" style="stroke:#181818;stroke-width:1.0;"/><path d="M662.2656,792.875 Q662.4219,792.6563 662.6094,792.5469 Q662.7969,792.4375 663.0156,792.4375 Q663.3906,792.4375 663.625,792.7031 Q663.8594,792.9531 663.8594,793.5625 L663.8594,795.0156 Q663.8594,795.625 663.625,795.8906 Q663.3906,796.1563 663.0156,796.1563 Q662.6719,796.1563 662.4688,795.9531 Q662.2656,795.7656 662.1563,795.25 Q662.1094,794.8906 661.9219,794.7031 Q661.5938,794.3281 660.9844,794.1094 Q660.375,793.8906 659.75,793.8906 Q658.9844,793.8906 658.3438,794.2188 Q657.7188,794.5469 657.2188,795.2969 Q656.7344,796.0469 656.7344,797.0781 L656.7344,798.1719 Q656.7344,799.4063 657.625,800.2344 Q658.5156,801.0469 660.1094,801.0469 Q661.0469,801.0469 661.7031,800.7969 Q662.0938,800.6406 662.5156,800.2031 Q662.7813,799.9375 662.9219,799.8594 Q663.0781,799.7813 663.2813,799.7813 Q663.6094,799.7813 663.8594,800.0469 Q664.125,800.2969 664.125,800.6406 Q664.125,800.9844 663.7813,801.3906 Q663.2813,801.9688 662.4844,802.2969 Q661.4063,802.75 660.1094,802.75 Q658.5938,802.75 657.3906,802.125 Q656.4063,801.625 655.7188,800.5625 Q655.0313,799.4844 655.0313,798.2031 L655.0313,797.0469 Q655.0313,795.7188 655.6406,794.5781 Q656.2656,793.4219 657.3594,792.8125 Q658.4531,792.1875 659.6875,792.1875 Q660.4219,792.1875 661.0625,792.3594 Q661.7188,792.5156 662.2656,792.875 Z " fill="#000000"/><text fill="#F7A830" font-family="sans-serif" font-size="14" lengthAdjust="spacing" textLength="169" x="673.5" y="802.7285">DefaultBoardStateChecker</text><line style="stroke:#9E2A86;stroke-width:0.5;" x1="645.5" x2="844.5" y1="813" y2="813"/><line style="stroke:#9E2A86;stroke-width:0.5;" x1="645.5" x2="844.5" y1="821" y2="821"/></g><!--MD5=[e84d5e32e2e7209da455e2bbd3fc576f]
class WildBoardStateChecker--><g id="elem_WildBoardStateChecker"><rect codeLine="64" fill="#23272D" height="48" id="WildBoardStateChecker" rx="2.5" ry="2.5" style="stroke:#9E2A86;stroke-width:0.5;" width="183" x="880.5" y="781"/><rect fill="#2E333A" height="32" rx="2.5" ry="2.5" style="stroke:#2E333A;stroke-width:0.5;" width="183" x="880.5" y="781"/><rect fill="#2E333A" height="2.5" style="stroke:#2E333A;stroke-width:0.5;" width="183" x="880.5" y="810.5"/><rect codeLine="64" fill="none" height="48" id="WildBoardStateChecker" rx="2.5" ry="2.5" style="stroke:#9E2A86;stroke-width:0.5;" width="183" x="880.5" y="781"/><ellipse cx="895.5" cy="797" fill="#ADD1B2" rx="11" ry="11" style="stroke:#181818;stroke-width:1.0;"/><path d="M898.2656,792.875 Q898.4219,792.6563 898.6094,792.5469 Q898.7969,792.4375 899.0156,792.4375 Q899.3906,792.4375 899.625,792.7031 Q899.8594,792.9531 899.8594,793.5625 L899.8594,795.0156 Q899.8594,795.625 899.625,795.8906 Q899.3906,796.1563 899.0156,796.1563 Q898.6719,796.1563 898.4688,795.9531 Q898.2656,795.7656 898.1563,795.25 Q898.1094,794.8906 897.9219,794.7031 Q897.5938,794.3281 896.9844,794.1094 Q896.375,793.8906 895.75,793.8906 Q894.9844,793.8906 894.3438,794.2188 Q893.7188,794.5469 893.2188,795.2969 Q892.7344,796.0469 892.7344,797.0781 L892.7344,798.1719 Q892.7344,799.4063 893.625,800.2344 Q894.5156,801.0469 896.1094,801.0469 Q897.0469,801.0469 897.7031,800.7969 Q898.0938,800.6406 898.5156,800.2031 Q898.7813,799.9375 898.9219,799.8594 Q899.0781,799.7813 899.2813,799.7813 Q899.6094,799.7813 899.8594,800.0469 Q900.125,800.2969 900.125,800.6406 Q900.125,800.9844 899.7813,801.3906 Q899.2813,801.9688 898.4844,802.2969 Q897.4063,802.75 896.1094,802.75 Q894.5938,802.75 893.3906,802.125 Q892.4063,801.625 891.7188,800.5625 Q891.0313,799.4844 891.0313,798.2031 L891.0313,797.0469 Q891.0313,795.7188 891.6406,794.5781 Q892.2656,793.4219 893.3594,792.8125 Q894.4531,792.1875 895.6875,792.1875 Q896.4219,792.1875 897.0625,792.3594 Q897.7188,792.5156 898.2656,792.875 Z " fill="#000000"/><text fill="#F7A830" font-family="sans-serif" font-size="14" lengthAdjust="spacing" textLength="151" x="909.5" y="802.7285">WildBoardStateChecker</text><line style="stroke:#9E2A86;stroke-width:0.5;" x1="881.5" x2="1062.5" y1="813" y2="813"/><line style="stroke:#9E2A86;stroke-width:0.5;" x1="881.5" x2="1062.5" y1="821" y2="821"/></g><!--MD5=[ccea1745902a8e2f99487443a7875157]
class TickOatBoardStateChecker--><g id="elem_TickOatBoardStateChecker"><rect codeLine="67" fill="#23272D" height="48" id="TickOatBoardStateChecker" rx="2.5" ry="2.5" style="stroke:#9E2A86;stroke-width:0.5;" width="205" x="1098.5" y="781"/><rect fill="#2E333A" height="32" rx="2.5" ry="2.5" style="stroke:#2E333A;stroke-width:0.5;" width="205" x="1098.5" y="781"/><rect fill="#2E333A" height="2.5" style="stroke:#2E333A;stroke-width:0.5;" width="205" x="1098.5" y="810.5"/><rect codeLine="67" fill="none" height="48" id="TickOatBoardStateChecker" rx="2.5" ry="2.5" style="stroke:#9E2A86;stroke-width:0.5;" width="205" x="1098.5" y="781"/><ellipse cx="1113.5" cy="797" fill="#ADD1B2" rx="11" ry="11" style="stroke:#181818;stroke-width:1.0;"/><path d="M1116.2656,792.875 Q1116.4219,792.6563 1116.6094,792.5469 Q1116.7969,792.4375 1117.0156,792.4375 Q1117.3906,792.4375 1117.625,792.7031 Q1117.8594,792.9531 1117.8594,793.5625 L1117.8594,795.0156 Q1117.8594,795.625 1117.625,795.8906 Q1117.3906,796.1563 1117.0156,796.1563 Q1116.6719,796.1563 1116.4688,795.9531 Q1116.2656,795.7656 1116.1563,795.25 Q1116.1094,794.8906 1115.9219,794.7031 Q1115.5938,794.3281 1114.9844,794.1094 Q1114.375,793.8906 1113.75,793.8906 Q1112.9844,793.8906 1112.3438,794.2188 Q1111.7188,794.5469 1111.2188,795.2969 Q1110.7344,796.0469 1110.7344,797.0781 L1110.7344,798.1719 Q1110.7344,799.4063 1111.625,800.2344 Q1112.5156,801.0469 1114.1094,801.0469 Q1115.0469,801.0469 1115.7031,800.7969 Q1116.0938,800.6406 1116.5156,800.2031 Q1116.7813,799.9375 1116.9219,799.8594 Q1117.0781,799.7813 1117.2813,799.7813 Q1117.6094,799.7813 1117.8594,800.0469 Q1118.125,800.2969 1118.125,800.6406 Q1118.125,800.9844 1117.7813,801.3906 Q1117.2813,801.9688 1116.4844,802.2969 Q1115.4063,802.75 1114.1094,802.75 Q1112.5938,802.75 1111.3906,802.125 Q1110.4063,801.625 1109.7188,800.5625 Q1109.0313,799.4844 1109.0313,798.2031 L1109.0313,797.0469 Q1109.0313,795.7188 1109.6406,794.5781 Q1110.2656,793.4219 1111.3594,792.8125 Q1112.4531,792.1875 1113.6875,792.1875 Q1114.4219,792.1875 1115.0625,792.3594 Q1115.7188,792.5156 1116.2656,792.875 Z " fill="#000000"/><text fill="#F7A830" font-family="sans-serif" font-size="14" lengthAdjust="spacing" textLength="173" x="1127.5" y="802.7285">TickOatBoardStateChecker</text><line style="stroke:#9E2A86;stroke-width:0.5;" x1="1099.5" x2="1302.5" y1="813" y2="813"/><line style="stroke:#9E2A86;stroke-width:0.5;" x1="1099.5" x2="1302.5" y1="821" y2="821"/></g><!--MD5=[c11ed4b50a1993cdbc2e04549011e9c4]
class ComputerMoveCalculatorFactory--><g id="elem_ComputerMoveCalculatorFactory"><rect codeLine="70" fill="#23272D" height="65.6094" id="ComputerMoveCalculatorFactory" rx="2.5" ry="2.5" style="stroke:#9E2A86;stroke-width:0.5;" width="242" x="517" y="221.5"/><rect fill="#2E333A" height="32" rx="2.5" ry="2.5" style="stroke:#2E333A;stroke-width:0.5;" width="242" x="517" y="221.5"/><rect fill="#2E333A" height="2.5" style="stroke:#2E333A;stroke-width:0.5;" width="242" x="517" y="251"/><rect codeLine="70" fill="none" height="65.6094" id="ComputerMoveCalculatorFactory" rx="2.5" ry="2.5" style="stroke:#9E2A86;stroke-width:0.5;" width="242" x="517" y="221.5"/><ellipse cx="532.9" cy="237.5" fill="#ADD1B2" rx="11" ry="11" style="stroke:#181818;stroke-width:1.0;"/><path d="M535.6656,233.375 Q535.8219,233.1563 536.0094,233.0469 Q536.1969,232.9375 536.4156,232.9375 Q536.7906,232.9375 537.025,233.2031 Q537.2594,233.4531 537.2594,234.0625 L537.2594,235.5156 Q537.2594,236.125 537.025,236.3906 Q536.7906,236.6563 536.4156,236.6563 Q536.0719,236.6563 535.8688,236.4531 Q535.6656,236.2656 535.5563,235.75 Q535.5094,235.3906 535.3219,235.2031 Q534.9938,234.8281 534.3844,234.6094 Q533.775,234.3906 533.15,234.3906 Q532.3844,234.3906 531.7438,234.7188 Q531.1188,235.0469 530.6188,235.7969 Q530.1344,236.5469 530.1344,237.5781 L530.1344,238.6719 Q530.1344,239.9063 531.025,240.7344 Q531.9156,241.5469 533.5094,241.5469 Q534.4469,241.5469 535.1031,241.2969 Q535.4938,241.1406 535.9156,240.7031 Q536.1813,240.4375 536.3219,240.3594 Q536.4781,240.2813 536.6813,240.2813 Q537.0094,240.2813 537.2594,240.5469 Q537.525,240.7969 537.525,241.1406 Q537.525,241.4844 537.1813,241.8906 Q536.6813,242.4688 535.8844,242.7969 Q534.8063,243.25 533.5094,243.25 Q531.9938,243.25 530.7906,242.625 Q529.8063,242.125 529.1188,241.0625 Q528.4313,239.9844 528.4313,238.7031 L528.4313,237.5469 Q528.4313,236.2188 529.0406,235.0781 Q529.6656,233.9219 530.7594,233.3125 Q531.8531,232.6875 533.0875,232.6875 Q533.8219,232.6875 534.4625,232.8594 Q535.1188,233.0156 535.6656,233.375 Z " fill="#000000"/><text fill="#F7A830" font-family="sans-serif" font-size="14" lengthAdjust="spacing" textLength="208" x="547.1" y="243.2285">ComputerMoveCalculatorFactory</text><line style="stroke:#9E2A86;stroke-width:0.5;" x1="518" x2="758" y1="253.5" y2="253.5"/><line style="stroke:#9E2A86;stroke-width:0.5;" x1="518" x2="758" y1="261.5" y2="261.5"/><ellipse cx="528" cy="275.8047" fill="#84BE84" rx="3" ry="3" style="stroke:#038048;stroke-width:1.0;"/><text fill="#F7A830" font-family="sans-serif" font-size="14" lengthAdjust="spacing" textLength="216" x="537" y="280.0332">make() : ComputerMoveCalculator</text></g><!--MD5=[1ae29bbaabadae7eff3b43de7b805d3a]
class GameUpdateValidator--><g id="elem_GameUpdateValidator"><rect codeLine="74" fill="#23272D" height="83.2188" id="GameUpdateValidator" rx="2.5" ry="2.5" style="stroke:#9E2A86;stroke-width:0.5;" width="346" x="984" y="213"/><rect fill="#2E333A" height="32" rx="2.5" ry="2.5" style="stroke:#2E333A;stroke-width:0.5;" width="346" x="984" y="213"/><rect fill="#2E333A" height="2.5" style="stroke:#2E333A;stroke-width:0.5;" width="346" x="984" y="242.5"/><rect codeLine="74" fill="none" height="83.2188" id="GameUpdateValidator" rx="2.5" ry="2.5" style="stroke:#9E2A86;stroke-width:0.5;" width="346" x="984" y="213"/><ellipse cx="1083.25" cy="229" fill="#ADD1B2" rx="11" ry="11" style="stroke:#181818;stroke-width:1.0;"/><path d="M1086.0156,224.875 Q1086.1719,224.6563 1086.3594,224.5469 Q1086.5469,224.4375 1086.7656,224.4375 Q1087.1406,224.4375 1087.375,224.7031 Q1087.6094,224.9531 1087.6094,225.5625 L1087.6094,227.0156 Q1087.6094,227.625 1087.375,227.8906 Q1087.1406,228.1563 1086.7656,228.1563 Q1086.4219,228.1563 1086.2188,227.9531 Q1086.0156,227.7656 1085.9063,227.25 Q1085.8594,226.8906 1085.6719,226.7031 Q1085.3438,226.3281 1084.7344,226.1094 Q1084.125,225.8906 1083.5,225.8906 Q1082.7344,225.8906 1082.0938,226.2188 Q1081.4688,226.5469 1080.9688,227.2969 Q1080.4844,228.0469 1080.4844,229.0781 L1080.4844,230.1719 Q1080.4844,231.4063 1081.375,232.2344 Q1082.2656,233.0469 1083.8594,233.0469 Q1084.7969,233.0469 1085.4531,232.7969 Q1085.8438,232.6406 1086.2656,232.2031 Q1086.5313,231.9375 1086.6719,231.8594 Q1086.8281,231.7813 1087.0313,231.7813 Q1087.3594,231.7813 1087.6094,232.0469 Q1087.875,232.2969 1087.875,232.6406 Q1087.875,232.9844 1087.5313,233.3906 Q1087.0313,233.9688 1086.2344,234.2969 Q1085.1563,234.75 1083.8594,234.75 Q1082.3438,234.75 1081.1406,234.125 Q1080.1563,233.625 1079.4688,232.5625 Q1078.7813,231.4844 1078.7813,230.2031 L1078.7813,229.0469 Q1078.7813,227.7188 1079.3906,226.5781 Q1080.0156,225.4219 1081.1094,224.8125 Q1082.2031,224.1875 1083.4375,224.1875 Q1084.1719,224.1875 1084.8125,224.3594 Q1085.4688,224.5156 1086.0156,224.875 Z " fill="#000000"/><text fill="#F7A830" font-family="sans-serif" font-size="14" lengthAdjust="spacing" textLength="139" x="1103.75" y="234.7285">GameUpdateValidator</text><line style="stroke:#9E2A86;stroke-width:0.5;" x1="985" x2="1329" y1="245" y2="245"/><rect fill="none" height="6" style="stroke:#C82930;stroke-width:1.0;" width="6" x="992" y="256.3047"/><text fill="#F7A830" font-family="sans-serif" font-size="14" lengthAdjust="spacing" textLength="320" x="1004" y="263.5332">validationRules : List&lt;GameUpdateValidationRule&gt;</text><line style="stroke:#9E2A86;stroke-width:0.5;" x1="985" x2="1329" y1="270.6094" y2="270.6094"/><ellipse cx="995" cy="284.9141" fill="#84BE84" rx="3" ry="3" style="stroke:#038048;stroke-width:1.0;"/><text fill="#F7A830" font-family="sans-serif" font-size="14" lengthAdjust="spacing" textLength="98" x="1004" y="289.1426">validate() : bool</text></g><!--MD5=[a6412fde02f694703200f71026debd84]
class GameUpdateValidationRule--><g id="elem_GameUpdateValidationRule"><rect codeLine="79" fill="#23272D" height="65.6094" id="GameUpdateValidationRule" rx="2.5" ry="2.5" style="stroke:#9E2A86;stroke-width:0.5;" width="207" x="1057.5" y="383"/><rect fill="#2E333A" height="32" rx="2.5" ry="2.5" style="stroke:#2E333A;stroke-width:0.5;" width="207" x="1057.5" y="383"/><rect fill="#2E333A" height="2.5" style="stroke:#2E333A;stroke-width:0.5;" width="207" x="1057.5" y="412.5"/><rect codeLine="79" fill="none" height="65.6094" id="GameUpdateValidationRule" rx="2.5" ry="2.5" style="stroke:#9E2A86;stroke-width:0.5;" width="207" x="1057.5" y="383"/><ellipse cx="1072.5" cy="399" fill="#B4A7E5" rx="11" ry="11" style="stroke:#181818;stroke-width:1.0;"/><path d="M1073.4531,395.6406 L1073.4531,402.2969 L1075.1719,402.2969 Q1075.7813,402.2969 1076.0469,402.5313 Q1076.3125,402.7656 1076.3125,403.1563 Q1076.3125,403.5313 1076.0469,403.7656 Q1075.7813,404 1075.1719,404 L1070.0313,404 Q1069.4219,404 1069.1563,403.7656 Q1068.8906,403.5313 1068.8906,403.1406 Q1068.8906,402.7656 1069.1563,402.5313 Q1069.4219,402.2969 1070.0313,402.2969 L1071.75,402.2969 L1071.75,395.6406 L1070.0313,395.6406 Q1069.4219,395.6406 1069.1563,395.4063 Q1068.8906,395.1719 1068.8906,394.7813 Q1068.8906,394.4063 1069.1563,394.1719 Q1069.4219,393.9375 1070.0313,393.9375 L1075.1719,393.9375 Q1075.7813,393.9375 1076.0469,394.1719 Q1076.3125,394.4063 1076.3125,394.7813 Q1076.3125,395.1719 1076.0469,395.4063 Q1075.7813,395.6406 1075.1719,395.6406 L1073.4531,395.6406 Z " fill="#000000"/><text fill="#F7A830" font-family="sans-serif" font-size="14" font-style="italic" lengthAdjust="spacing" textLength="175" x="1086.5" y="404.7285">GameUpdateValidationRule</text><line style="stroke:#9E2A86;stroke-width:0.5;" x1="1058.5" x2="1263.5" y1="415" y2="415"/><line style="stroke:#9E2A86;stroke-width:0.5;" x1="1058.5" x2="1263.5" y1="423" y2="423"/><ellipse cx="1068.5" cy="437.3047" fill="#84BE84" rx="3" ry="3" style="stroke:#038048;stroke-width:1.0;"/><text fill="#F7A830" font-family="sans-serif" font-size="14" lengthAdjust="spacing" textLength="90" x="1077.5" y="441.5332">isValid() : bool</text></g><!--MD5=[5584e56c82040940fdb4628fb8be791c]
class SinglePlayerValidationRule--><g id="elem_SinglePlayerValidationRule"><rect codeLine="83" fill="#23272D" height="48" id="SinglePlayerValidationRule" rx="2.5" ry="2.5" style="stroke:#9E2A86;stroke-width:0.5;" width="202" x="1060" y="536"/><rect fill="#2E333A" height="32" rx="2.5" ry="2.5" style="stroke:#2E333A;stroke-width:0.5;" width="202" x="1060" y="536"/><rect fill="#2E333A" height="2.5" style="stroke:#2E333A;stroke-width:0.5;" width="202" x="1060" y="565.5"/><rect codeLine="83" fill="none" height="48" id="SinglePlayerValidationRule" rx="2.5" ry="2.5" style="stroke:#9E2A86;stroke-width:0.5;" width="202" x="1060" y="536"/><ellipse cx="1075" cy="552" fill="#ADD1B2" rx="11" ry="11" style="stroke:#181818;stroke-width:1.0;"/><path d="M1077.7656,547.875 Q1077.9219,547.6563 1078.1094,547.5469 Q1078.2969,547.4375 1078.5156,547.4375 Q1078.8906,547.4375 1079.125,547.7031 Q1079.3594,547.9531 1079.3594,548.5625 L1079.3594,550.0156 Q1079.3594,550.625 1079.125,550.8906 Q1078.8906,551.1563 1078.5156,551.1563 Q1078.1719,551.1563 1077.9688,550.9531 Q1077.7656,550.7656 1077.6563,550.25 Q1077.6094,549.8906 1077.4219,549.7031 Q1077.0938,549.3281 1076.4844,549.1094 Q1075.875,548.8906 1075.25,548.8906 Q1074.4844,548.8906 1073.8438,549.2188 Q1073.2188,549.5469 1072.7188,550.2969 Q1072.2344,551.0469 1072.2344,552.0781 L1072.2344,553.1719 Q1072.2344,554.4063 1073.125,555.2344 Q1074.0156,556.0469 1075.6094,556.0469 Q1076.5469,556.0469 1077.2031,555.7969 Q1077.5938,555.6406 1078.0156,555.2031 Q1078.2813,554.9375 1078.4219,554.8594 Q1078.5781,554.7813 1078.7813,554.7813 Q1079.1094,554.7813 1079.3594,555.0469 Q1079.625,555.2969 1079.625,555.6406 Q1079.625,555.9844 1079.2813,556.3906 Q1078.7813,556.9688 1077.9844,557.2969 Q1076.9063,557.75 1075.6094,557.75 Q1074.0938,557.75 1072.8906,557.125 Q1071.9063,556.625 1071.2188,555.5625 Q1070.5313,554.4844 1070.5313,553.2031 L1070.5313,552.0469 Q1070.5313,550.7188 1071.1406,549.5781 Q1071.7656,548.4219 1072.8594,547.8125 Q1073.9531,547.1875 1075.1875,547.1875 Q1075.9219,547.1875 1076.5625,547.3594 Q1077.2188,547.5156 1077.7656,547.875 Z " fill="#000000"/><text fill="#F7A830" font-family="sans-serif" font-size="14" lengthAdjust="spacing" textLength="170" x="1089" y="557.7285">SinglePlayerValidationRule</text><line style="stroke:#9E2A86;stroke-width:0.5;" x1="1061" x2="1261" y1="568" y2="568"/><line style="stroke:#9E2A86;stroke-width:0.5;" x1="1061" x2="1261" y1="576" y2="576"/></g><!--MD5=[ce88ad8a231139c6ac44172ff0aeae0a]
class AnimationPlayingValidationRule--><g id="elem_AnimationPlayingValidationRule"><rect codeLine="86" fill="#23272D" height="48" id="AnimationPlayingValidationRule" rx="2.5" ry="2.5" style="stroke:#9E2A86;stroke-width:0.5;" width="231" x="1297.5" y="536"/><rect fill="#2E333A" height="32" rx="2.5" ry="2.5" style="stroke:#2E333A;stroke-width:0.5;" width="231" x="1297.5" y="536"/><rect fill="#2E333A" height="2.5" style="stroke:#2E333A;stroke-width:0.5;" width="231" x="1297.5" y="565.5"/><rect codeLine="86" fill="none" height="48" id="AnimationPlayingValidationRule" rx="2.5" ry="2.5" style="stroke:#9E2A86;stroke-width:0.5;" width="231" x="1297.5" y="536"/><ellipse cx="1312.5" cy="552" fill="#ADD1B2" rx="11" ry="11" style="stroke:#181818;stroke-width:1.0;"/><path d="M1315.2656,547.875 Q1315.4219,547.6563 1315.6094,547.5469 Q1315.7969,547.4375 1316.0156,547.4375 Q1316.3906,547.4375 1316.625,547.7031 Q1316.8594,547.9531 1316.8594,548.5625 L1316.8594,550.0156 Q1316.8594,550.625 1316.625,550.8906 Q1316.3906,551.1563 1316.0156,551.1563 Q1315.6719,551.1563 1315.4688,550.9531 Q1315.2656,550.7656 1315.1563,550.25 Q1315.1094,549.8906 1314.9219,549.7031 Q1314.5938,549.3281 1313.9844,549.1094 Q1313.375,548.8906 1312.75,548.8906 Q1311.9844,548.8906 1311.3438,549.2188 Q1310.7188,549.5469 1310.2188,550.2969 Q1309.7344,551.0469 1309.7344,552.0781 L1309.7344,553.1719 Q1309.7344,554.4063 1310.625,555.2344 Q1311.5156,556.0469 1313.1094,556.0469 Q1314.0469,556.0469 1314.7031,555.7969 Q1315.0938,555.6406 1315.5156,555.2031 Q1315.7813,554.9375 1315.9219,554.8594 Q1316.0781,554.7813 1316.2813,554.7813 Q1316.6094,554.7813 1316.8594,555.0469 Q1317.125,555.2969 1317.125,555.6406 Q1317.125,555.9844 1316.7813,556.3906 Q1316.2813,556.9688 1315.4844,557.2969 Q1314.4063,557.75 1313.1094,557.75 Q1311.5938,557.75 1310.3906,557.125 Q1309.4063,556.625 1308.7188,555.5625 Q1308.0313,554.4844 1308.0313,553.2031 L1308.0313,552.0469 Q1308.0313,550.7188 1308.6406,549.5781 Q1309.2656,548.4219 1310.3594,547.8125 Q1311.4531,547.1875 1312.6875,547.1875 Q1313.4219,547.1875 1314.0625,547.3594 Q1314.7188,547.5156 1315.2656,547.875 Z " fill="#000000"/><text fill="#F7A830" font-family="sans-serif" font-size="14" lengthAdjust="spacing" textLength="199" x="1326.5" y="557.7285">AnimationPlayingValidationRule</text><line style="stroke:#9E2A86;stroke-width:0.5;" x1="1298.5" x2="1527.5" y1="568" y2="568"/><line style="stroke:#9E2A86;stroke-width:0.5;" x1="1298.5" x2="1527.5" y1="576" y2="576"/></g><!--MD5=[b283bcd2d3c910c8c033bb3cbb13fc67]
class PlayerTurnValidationRule--><g id="elem_PlayerTurnValidationRule"><rect codeLine="89" fill="#23272D" height="48" id="PlayerTurnValidationRule" rx="2.5" ry="2.5" style="stroke:#9E2A86;stroke-width:0.5;" width="193" x="1563.5" y="536"/><rect fill="#2E333A" height="32" rx="2.5" ry="2.5" style="stroke:#2E333A;stroke-width:0.5;" width="193" x="1563.5" y="536"/><rect fill="#2E333A" height="2.5" style="stroke:#2E333A;stroke-width:0.5;" width="193" x="1563.5" y="565.5"/><rect codeLine="89" fill="none" height="48" id="PlayerTurnValidationRule" rx="2.5" ry="2.5" style="stroke:#9E2A86;stroke-width:0.5;" width="193" x="1563.5" y="536"/><ellipse cx="1578.5" cy="552" fill="#ADD1B2" rx="11" ry="11" style="stroke:#181818;stroke-width:1.0;"/><path d="M1581.2656,547.875 Q1581.4219,547.6563 1581.6094,547.5469 Q1581.7969,547.4375 1582.0156,547.4375 Q1582.3906,547.4375 1582.625,547.7031 Q1582.8594,547.9531 1582.8594,548.5625 L1582.8594,550.0156 Q1582.8594,550.625 1582.625,550.8906 Q1582.3906,551.1563 1582.0156,551.1563 Q1581.6719,551.1563 1581.4688,550.9531 Q1581.2656,550.7656 1581.1563,550.25 Q1581.1094,549.8906 1580.9219,549.7031 Q1580.5938,549.3281 1579.9844,549.1094 Q1579.375,548.8906 1578.75,548.8906 Q1577.9844,548.8906 1577.3438,549.2188 Q1576.7188,549.5469 1576.2188,550.2969 Q1575.7344,551.0469 1575.7344,552.0781 L1575.7344,553.1719 Q1575.7344,554.4063 1576.625,555.2344 Q1577.5156,556.0469 1579.1094,556.0469 Q1580.0469,556.0469 1580.7031,555.7969 Q1581.0938,555.6406 1581.5156,555.2031 Q1581.7813,554.9375 1581.9219,554.8594 Q1582.0781,554.7813 1582.2813,554.7813 Q1582.6094,554.7813 1582.8594,555.0469 Q1583.125,555.2969 1583.125,555.6406 Q1583.125,555.9844 1582.7813,556.3906 Q1582.2813,556.9688 1581.4844,557.2969 Q1580.4063,557.75 1579.1094,557.75 Q1577.5938,557.75 1576.3906,557.125 Q1575.4063,556.625 1574.7188,555.5625 Q1574.0313,554.4844 1574.0313,553.2031 L1574.0313,552.0469 Q1574.0313,550.7188 1574.6406,549.5781 Q1575.2656,548.4219 1576.3594,547.8125 Q1577.4531,547.1875 1578.6875,547.1875 Q1579.4219,547.1875 1580.0625,547.3594 Q1580.7188,547.5156 1581.2656,547.875 Z " fill="#000000"/><text fill="#F7A830" font-family="sans-serif" font-size="14" lengthAdjust="spacing" textLength="161" x="1592.5" y="557.7285">PlayerTurnValidationRule</text><line style="stroke:#9E2A86;stroke-width:0.5;" x1="1564.5" x2="1755.5" y1="568" y2="568"/><line style="stroke:#9E2A86;stroke-width:0.5;" x1="1564.5" x2="1755.5" y1="576" y2="576"/></g><!--MD5=[4fe8a526e545b479460ccfbda6285a81]
class GameOverValidationRule--><g id="elem_GameOverValidationRule"><rect codeLine="92" fill="#23272D" height="48" id="GameOverValidationRule" rx="2.5" ry="2.5" style="stroke:#9E2A86;stroke-width:0.5;" width="192" x="833" y="536"/><rect fill="#2E333A" height="32" rx="2.5" ry="2.5" style="stroke:#2E333A;stroke-width:0.5;" width="192" x="833" y="536"/><rect fill="#2E333A" height="2.5" style="stroke:#2E333A;stroke-width:0.5;" width="192" x="833" y="565.5"/><rect codeLine="92" fill="none" height="48" id="GameOverValidationRule" rx="2.5" ry="2.5" style="stroke:#9E2A86;stroke-width:0.5;" width="192" x="833" y="536"/><ellipse cx="848" cy="552" fill="#ADD1B2" rx="11" ry="11" style="stroke:#181818;stroke-width:1.0;"/><path d="M850.7656,547.875 Q850.9219,547.6563 851.1094,547.5469 Q851.2969,547.4375 851.5156,547.4375 Q851.8906,547.4375 852.125,547.7031 Q852.3594,547.9531 852.3594,548.5625 L852.3594,550.0156 Q852.3594,550.625 852.125,550.8906 Q851.8906,551.1563 851.5156,551.1563 Q851.1719,551.1563 850.9688,550.9531 Q850.7656,550.7656 850.6563,550.25 Q850.6094,549.8906 850.4219,549.7031 Q850.0938,549.3281 849.4844,549.1094 Q848.875,548.8906 848.25,548.8906 Q847.4844,548.8906 846.8438,549.2188 Q846.2188,549.5469 845.7188,550.2969 Q845.2344,551.0469 845.2344,552.0781 L845.2344,553.1719 Q845.2344,554.4063 846.125,555.2344 Q847.0156,556.0469 848.6094,556.0469 Q849.5469,556.0469 850.2031,555.7969 Q850.5938,555.6406 851.0156,555.2031 Q851.2813,554.9375 851.4219,554.8594 Q851.5781,554.7813 851.7813,554.7813 Q852.1094,554.7813 852.3594,555.0469 Q852.625,555.2969 852.625,555.6406 Q852.625,555.9844 852.2813,556.3906 Q851.7813,556.9688 850.9844,557.2969 Q849.9063,557.75 848.6094,557.75 Q847.0938,557.75 845.8906,557.125 Q844.9063,556.625 844.2188,555.5625 Q843.5313,554.4844 843.5313,553.2031 L843.5313,552.0469 Q843.5313,550.7188 844.1406,549.5781 Q844.7656,548.4219 845.8594,547.8125 Q846.9531,547.1875 848.1875,547.1875 Q848.9219,547.1875 849.5625,547.3594 Q850.2188,547.5156 850.7656,547.875 Z " fill="#000000"/><text fill="#F7A830" font-family="sans-serif" font-size="14" lengthAdjust="spacing" textLength="160" x="862" y="557.7285">GameOverValidationRule</text><line style="stroke:#9E2A86;stroke-width:0.5;" x1="834" x2="1024" y1="568" y2="568"/><line style="stroke:#9E2A86;stroke-width:0.5;" x1="834" x2="1024" y1="576" y2="576"/></g><!--MD5=[84bbee161c321c0d0819866edb9dea23]
class TileController--><g id="elem_TileController"><rect codeLine="95" fill="#23272D" height="83.2188" id="TileController" rx="2.5" ry="2.5" style="stroke:#9E2A86;stroke-width:0.5;" width="117" x="1534.5" y="33.5"/><rect fill="#2E333A" height="32" rx="2.5" ry="2.5" style="stroke:#2E333A;stroke-width:0.5;" width="117" x="1534.5" y="33.5"/><rect fill="#2E333A" height="2.5" style="stroke:#2E333A;stroke-width:0.5;" width="117" x="1534.5" y="63"/><rect codeLine="95" fill="none" height="83.2188" id="TileController" rx="2.5" ry="2.5" style="stroke:#9E2A86;stroke-width:0.5;" width="117" x="1534.5" y="33.5"/><ellipse cx="1549.5" cy="49.5" fill="#ADD1B2" rx="11" ry="11" style="stroke:#181818;stroke-width:1.0;"/><path d="M1552.2656,45.375 Q1552.4219,45.1563 1552.6094,45.0469 Q1552.7969,44.9375 1553.0156,44.9375 Q1553.3906,44.9375 1553.625,45.2031 Q1553.8594,45.4531 1553.8594,46.0625 L1553.8594,47.5156 Q1553.8594,48.125 1553.625,48.3906 Q1553.3906,48.6563 1553.0156,48.6563 Q1552.6719,48.6563 1552.4688,48.4531 Q1552.2656,48.2656 1552.1563,47.75 Q1552.1094,47.3906 1551.9219,47.2031 Q1551.5938,46.8281 1550.9844,46.6094 Q1550.375,46.3906 1549.75,46.3906 Q1548.9844,46.3906 1548.3438,46.7188 Q1547.7188,47.0469 1547.2188,47.7969 Q1546.7344,48.5469 1546.7344,49.5781 L1546.7344,50.6719 Q1546.7344,51.9063 1547.625,52.7344 Q1548.5156,53.5469 1550.1094,53.5469 Q1551.0469,53.5469 1551.7031,53.2969 Q1552.0938,53.1406 1552.5156,52.7031 Q1552.7813,52.4375 1552.9219,52.3594 Q1553.0781,52.2813 1553.2813,52.2813 Q1553.6094,52.2813 1553.8594,52.5469 Q1554.125,52.7969 1554.125,53.1406 Q1554.125,53.4844 1553.7813,53.8906 Q1553.2813,54.4688 1552.4844,54.7969 Q1551.4063,55.25 1550.1094,55.25 Q1548.5938,55.25 1547.3906,54.625 Q1546.4063,54.125 1545.7188,53.0625 Q1545.0313,51.9844 1545.0313,50.7031 L1545.0313,49.5469 Q1545.0313,48.2188 1545.6406,47.0781 Q1546.2656,45.9219 1547.3594,45.3125 Q1548.4531,44.6875 1549.6875,44.6875 Q1550.4219,44.6875 1551.0625,44.8594 Q1551.7188,45.0156 1552.2656,45.375 Z " fill="#000000"/><text fill="#F7A830" font-family="sans-serif" font-size="14" lengthAdjust="spacing" textLength="85" x="1563.5" y="55.2285">TileController</text><line style="stroke:#9E2A86;stroke-width:0.5;" x1="1535.5" x2="1650.5" y1="65.5" y2="65.5"/><line style="stroke:#9E2A86;stroke-width:0.5;" x1="1535.5" x2="1650.5" y1="73.5" y2="73.5"/><ellipse cx="1545.5" cy="87.8047" fill="#84BE84" rx="3" ry="3" style="stroke:#038048;stroke-width:1.0;"/><text fill="#F7A830" font-family="sans-serif" font-size="14" lengthAdjust="spacing" textLength="40" x="1554.5" y="92.0332">Start()</text><ellipse cx="1545.5" cy="105.4141" fill="#84BE84" rx="3" ry="3" style="stroke:#038048;stroke-width:1.0;"/><text fill="#F7A830" font-family="sans-serif" font-size="14" lengthAdjust="spacing" textLength="55" x="1554.5" y="109.6426">Update()</text></g><!--MD5=[5e02555aab23c0bcc2b440136ca23ea7]
class AnimationPicker--><g id="elem_AnimationPicker"><rect codeLine="100" fill="#23272D" height="65.6094" id="AnimationPicker" rx="2.5" ry="2.5" style="stroke:#9E2A86;stroke-width:0.5;" width="133" x="1526.5" y="383"/><rect fill="#2E333A" height="32" rx="2.5" ry="2.5" style="stroke:#2E333A;stroke-width:0.5;" width="133" x="1526.5" y="383"/><rect fill="#2E333A" height="2.5" style="stroke:#2E333A;stroke-width:0.5;" width="133" x="1526.5" y="412.5"/><rect codeLine="100" fill="none" height="65.6094" id="AnimationPicker" rx="2.5" ry="2.5" style="stroke:#9E2A86;stroke-width:0.5;" width="133" x="1526.5" y="383"/><ellipse cx="1541.5" cy="399" fill="#ADD1B2" rx="11" ry="11" style="stroke:#181818;stroke-width:1.0;"/><path d="M1544.2656,394.875 Q1544.4219,394.6563 1544.6094,394.5469 Q1544.7969,394.4375 1545.0156,394.4375 Q1545.3906,394.4375 1545.625,394.7031 Q1545.8594,394.9531 1545.8594,395.5625 L1545.8594,397.0156 Q1545.8594,397.625 1545.625,397.8906 Q1545.3906,398.1563 1545.0156,398.1563 Q1544.6719,398.1563 1544.4688,397.9531 Q1544.2656,397.7656 1544.1563,397.25 Q1544.1094,396.8906 1543.9219,396.7031 Q1543.5938,396.3281 1542.9844,396.1094 Q1542.375,395.8906 1541.75,395.8906 Q1540.9844,395.8906 1540.3438,396.2188 Q1539.7188,396.5469 1539.2188,397.2969 Q1538.7344,398.0469 1538.7344,399.0781 L1538.7344,400.1719 Q1538.7344,401.4063 1539.625,402.2344 Q1540.5156,403.0469 1542.1094,403.0469 Q1543.0469,403.0469 1543.7031,402.7969 Q1544.0938,402.6406 1544.5156,402.2031 Q1544.7813,401.9375 1544.9219,401.8594 Q1545.0781,401.7813 1545.2813,401.7813 Q1545.6094,401.7813 1545.8594,402.0469 Q1546.125,402.2969 1546.125,402.6406 Q1546.125,402.9844 1545.7813,403.3906 Q1545.2813,403.9688 1544.4844,404.2969 Q1543.4063,404.75 1542.1094,404.75 Q1540.5938,404.75 1539.3906,404.125 Q1538.4063,403.625 1537.7188,402.5625 Q1537.0313,401.4844 1537.0313,400.2031 L1537.0313,399.0469 Q1537.0313,397.7188 1537.6406,396.5781 Q1538.2656,395.4219 1539.3594,394.8125 Q1540.4531,394.1875 1541.6875,394.1875 Q1542.4219,394.1875 1543.0625,394.3594 Q1543.7188,394.5156 1544.2656,394.875 Z " fill="#000000"/><text fill="#F7A830" font-family="sans-serif" font-size="14" lengthAdjust="spacing" textLength="101" x="1555.5" y="404.7285">AnimationPicker</text><line style="stroke:#9E2A86;stroke-width:0.5;" x1="1527.5" x2="1658.5" y1="415" y2="415"/><line style="stroke:#9E2A86;stroke-width:0.5;" x1="1527.5" x2="1658.5" y1="423" y2="423"/><ellipse cx="1537.5" cy="437.3047" fill="#84BE84" rx="3" ry="3" style="stroke:#038048;stroke-width:1.0;"/><text fill="#F7A830" font-family="sans-serif" font-size="14" lengthAdjust="spacing" textLength="82" x="1546.5" y="441.5332">pick() : string</text></g><!--MD5=[97d985424c0aaa9fe4187203362a0491]
class AnimationDrawer--><g id="elem_AnimationDrawer"><rect codeLine="104" fill="#23272D" height="65.6094" id="AnimationDrawer" rx="2.5" ry="2.5" style="stroke:#9E2A86;stroke-width:0.5;" width="139" x="1523.5" y="221.5"/><rect fill="#2E333A" height="32" rx="2.5" ry="2.5" style="stroke:#2E333A;stroke-width:0.5;" width="139" x="1523.5" y="221.5"/><rect fill="#2E333A" height="2.5" style="stroke:#2E333A;stroke-width:0.5;" width="139" x="1523.5" y="251"/><rect codeLine="104" fill="none" height="65.6094" id="AnimationDrawer" rx="2.5" ry="2.5" style="stroke:#9E2A86;stroke-width:0.5;" width="139" x="1523.5" y="221.5"/><ellipse cx="1538.5" cy="237.5" fill="#ADD1B2" rx="11" ry="11" style="stroke:#181818;stroke-width:1.0;"/><path d="M1541.2656,233.375 Q1541.4219,233.1563 1541.6094,233.0469 Q1541.7969,232.9375 1542.0156,232.9375 Q1542.3906,232.9375 1542.625,233.2031 Q1542.8594,233.4531 1542.8594,234.0625 L1542.8594,235.5156 Q1542.8594,236.125 1542.625,236.3906 Q1542.3906,236.6563 1542.0156,236.6563 Q1541.6719,236.6563 1541.4688,236.4531 Q1541.2656,236.2656 1541.1563,235.75 Q1541.1094,235.3906 1540.9219,235.2031 Q1540.5938,234.8281 1539.9844,234.6094 Q1539.375,234.3906 1538.75,234.3906 Q1537.9844,234.3906 1537.3438,234.7188 Q1536.7188,235.0469 1536.2188,235.7969 Q1535.7344,236.5469 1535.7344,237.5781 L1535.7344,238.6719 Q1535.7344,239.9063 1536.625,240.7344 Q1537.5156,241.5469 1539.1094,241.5469 Q1540.0469,241.5469 1540.7031,241.2969 Q1541.0938,241.1406 1541.5156,240.7031 Q1541.7813,240.4375 1541.9219,240.3594 Q1542.0781,240.2813 1542.2813,240.2813 Q1542.6094,240.2813 1542.8594,240.5469 Q1543.125,240.7969 1543.125,241.1406 Q1543.125,241.4844 1542.7813,241.8906 Q1542.2813,242.4688 1541.4844,242.7969 Q1540.4063,243.25 1539.1094,243.25 Q1537.5938,243.25 1536.3906,242.625 Q1535.4063,242.125 1534.7188,241.0625 Q1534.0313,239.9844 1534.0313,238.7031 L1534.0313,237.5469 Q1534.0313,236.2188 1534.6406,235.0781 Q1535.2656,233.9219 1536.3594,233.3125 Q1537.4531,232.6875 1538.6875,232.6875 Q1539.4219,232.6875 1540.0625,232.8594 Q1540.7188,233.0156 1541.2656,233.375 Z " fill="#000000"/><text fill="#F7A830" font-family="sans-serif" font-size="14" lengthAdjust="spacing" textLength="107" x="1552.5" y="243.2285">AnimationDrawer</text><line style="stroke:#9E2A86;stroke-width:0.5;" x1="1524.5" x2="1661.5" y1="253.5" y2="253.5"/><line style="stroke:#9E2A86;stroke-width:0.5;" x1="1524.5" x2="1661.5" y1="261.5" y2="261.5"/><ellipse cx="1534.5" cy="275.8047" fill="#84BE84" rx="3" ry="3" style="stroke:#038048;stroke-width:1.0;"/><text fill="#F7A830" font-family="sans-serif" font-size="14" lengthAdjust="spacing" textLength="40" x="1543.5" y="280.0332">draw()</text></g><!--MD5=[ac1b01782603db362638ac0acda8be77]
reverse link GameOrchestrator to BoardStateUpdater--><g id="link_GameOrchestrator_BoardStateUpdater"><path codeLine="109" d="M872,129.92 C872,159.74 872,195.8 872,221.25 " fill="none" id="GameOrchestrator-backto-BoardStateUpdater" style="stroke:#9E2A86;stroke-width:1.0;"/><polygon fill="#9E2A86" points="872,116.72,868,122.72,872,128.72,876,122.72,872,116.72" style="stroke:#9E2A86;stroke-width:1.0;"/></g><!--MD5=[8f7d7bd24f6de6a50aa8188dc8461b8c]
reverse link GameOrchestrator to ComputerMoveCalculatorFactory--><g id="link_GameOrchestrator_ComputerMoveCalculatorFactory"><path codeLine="110" d="M807.73,124.75 C767.21,155.48 716.03,194.31 680.52,221.25 " fill="none" id="GameOrchestrator-backto-ComputerMoveCalculatorFactory" style="stroke:#9E2A86;stroke-width:1.0;"/><polygon fill="#9E2A86" points="818.32,116.72,811.1223,117.1596,808.7597,123.9726,815.9574,123.5331,818.32,116.72" style="stroke:#9E2A86;stroke-width:1.0;"/></g><!--MD5=[aec4aa21e98f1436409645323a8934f4]
reverse link GameOrchestrator to GameUpdateValidator--><g id="link_GameOrchestrator_GameUpdateValidator"><path codeLine="111" d="M948.52,123.66 C993.31,151.55 1049.26,186.4 1091.92,212.97 " fill="none" id="GameOrchestrator-backto-GameUpdateValidator" style="stroke:#9E2A86;stroke-width:1.0;"/><polygon fill="#9E2A86" points="937.38,116.72,940.3549,123.2889,947.5626,123.0693,944.5878,116.5005,937.38,116.72" style="stroke:#9E2A86;stroke-width:1.0;"/></g><!--MD5=[b5cc4eefc31f910098a7102083658200]
reverse link GameUpdateValidator to GameUpdateValidationRule--><g id="link_GameUpdateValidator_GameUpdateValidationRule"><path codeLine="112" d="M1158.35,309.31 C1158.96,333.77 1159.67,361.88 1160.2,382.96 " fill="none" id="GameUpdateValidator-backto-GameUpdateValidationRule" style="stroke:#9E2A86;stroke-width:1.0;"/><polygon fill="#9E2A86" points="1158.02,296.16,1154.173,302.2593,1158.3235,308.1562,1162.1705,302.0569,1158.02,296.16" style="stroke:#9E2A86;stroke-width:1.0;"/></g><!--MD5=[def4bf07b4c765c60669a62df1557ba2]
reverse link GameUpdateValidationRule to AnimationPlayingValidationRule--><g id="link_GameUpdateValidationRule_AnimationPlayingValidationRule"><path codeLine="113" d="M1235.34,458.89 C1280,484.06 1335.13,515.12 1372.03,535.91 " fill="none" id="GameUpdateValidationRule-backto-AnimationPlayingValidationRule" style="stroke:#9E2A86;stroke-width:1.0;"/><polygon fill="none" points="1231.86,464.96,1217.87,449.04,1238.73,452.76,1231.86,464.96" style="stroke:#9E2A86;stroke-width:1.0;"/></g><!--MD5=[b947e7e171af76739c1851ea50e70ff2]
reverse link GameUpdateValidationRule to PlayerTurnValidationRule--><g id="link_GameUpdateValidationRule_PlayerTurnValidationRule"><path codeLine="114" d="M1284.12,452.03 C1376.09,478.21 1499.19,513.24 1579.04,535.96 " fill="none" id="GameUpdateValidationRule-backto-PlayerTurnValidationRule" style="stroke:#9E2A86;stroke-width:1.0;"/><polygon fill="none" points="1282.02,458.72,1264.7,446.51,1285.85,445.25,1282.02,458.72" style="stroke:#9E2A86;stroke-width:1.0;"/></g><!--MD5=[cf6c9318a6ff859641e0efaf3fda031c]
reverse link GameUpdateValidationRule to GameOverValidationRule--><g id="link_GameUpdateValidationRule_GameOverValidationRule"><path codeLine="115" d="M1091.46,459.56 C1050.54,484.61 1000.38,515.31 966.72,535.91 " fill="none" id="GameUpdateValidationRule-backto-GameOverValidationRule" style="stroke:#9E2A86;stroke-width:1.0;"/><polygon fill="none" points="1087.93,453.52,1108.65,449.04,1095.24,465.46,1087.93,453.52" style="stroke:#9E2A86;stroke-width:1.0;"/></g><!--MD5=[07109cdd4645ca3dbcb8537a89015929]
reverse link GameUpdateValidationRule to SinglePlayerValidationRule--><g id="link_GameUpdateValidationRule_SinglePlayerValidationRule"><path codeLine="116" d="M1161,469.49 C1161,492.28 1161,517.81 1161,535.75 " fill="none" id="GameUpdateValidationRule-backto-SinglePlayerValidationRule" style="stroke:#9E2A86;stroke-width:1.0;"/><polygon fill="none" points="1154,469.22,1161,449.22,1168,469.22,1154,469.22" style="stroke:#9E2A86;stroke-width:1.0;"/></g><!--MD5=[1ab2021085be53f82a4f6d89dcae4b39]
reverse link ComputerMoveCalculator to HardComputerMoveCalc--><g id="link_ComputerMoveCalculator_HardComputerMoveCalc"><path codeLine="117" d="M631,469.44 C631,488.72 631,509.95 631,526.91 " fill="none" id="ComputerMoveCalculator-backto-HardComputerMoveCalc" style="stroke:#9E2A86;stroke-width:1.0;"/><polygon fill="none" points="624,469.22,631,449.22,638,469.22,624,469.22" style="stroke:#9E2A86;stroke-width:1.0;"/></g><!--MD5=[27d142102ec95bb48af3422ab6fc0c51]
reverse link HardComputerMoveCalc to PossibleMovesCalculator--><g id="link_HardComputerMoveCalc_PossibleMovesCalculator"><path codeLine="118" d="M582.66,601.55 C562.43,618.52 539.25,637.97 520.24,653.92 " fill="none" id="HardComputerMoveCalc-backto-PossibleMovesCalculator" style="stroke:#9E2A86;stroke-width:1.0;"/><polygon fill="#9E2A86" points="592.63,593.19,585.462,593.9774,583.4319,600.8968,590.5999,600.1094,592.63,593.19" style="stroke:#9E2A86;stroke-width:1.0;"/></g><!--MD5=[2b56af0b82ddc01824582c8be24b7cec]
reverse link HardComputerMoveCalc to BoardStateChecker--><g id="link_HardComputerMoveCalc_BoardStateChecker"><path codeLine="119" d="M679.34,601.55 C699.57,618.52 722.75,637.97 741.76,653.92 " fill="none" id="HardComputerMoveCalc-backto-BoardStateChecker" style="stroke:#9E2A86;stroke-width:1.0;"/><polygon fill="#9E2A86" points="669.37,593.19,671.4001,600.1094,678.5681,600.8968,676.538,593.9774,669.37,593.19" style="stroke:#9E2A86;stroke-width:1.0;"/></g><!--MD5=[288097674396e8f57849ea10c6698f4c]
reverse link PossibleMovesCalculator to DefaultMovesCalculator--><g id="link_PossibleMovesCalculator_DefaultMovesCalculator"><path codeLine="120" d="M366.8,722.8 C304.53,741.61 229.37,764.31 174.38,780.93 " fill="none" id="PossibleMovesCalculator-backto-DefaultMovesCalculator" style="stroke:#9E2A86;stroke-width:1.0;"/><polygon fill="none" points="364.92,716.06,386.09,716.97,368.97,729.46,364.92,716.06" style="stroke:#9E2A86;stroke-width:1.0;"/></g><!--MD5=[c6072f797bacd705ca5734e9d1c0f348]
reverse link PossibleMovesCalculator to WildMovesCalculator--><g id="link_PossibleMovesCalculator_WildMovesCalculator"><path codeLine="121" d="M416.67,731.06 C391.02,747.96 362.62,766.68 341.01,780.93 " fill="none" id="PossibleMovesCalculator-backto-WildMovesCalculator" style="stroke:#9E2A86;stroke-width:1.0;"/><polygon fill="none" points="412.89,725.17,433.44,720,420.59,736.86,412.89,725.17" style="stroke:#9E2A86;stroke-width:1.0;"/></g><!--MD5=[fbce33e2b0cfcd1723194f0d2998c1ba]
reverse link PossibleMovesCalculator to TickOatMovesCalculator--><g id="link_PossibleMovesCalculator_TickOatMovesCalculator"><path codeLine="122" d="M497.15,739.68 C501.38,754.11 505.76,769.07 509.24,780.93 " fill="none" id="PossibleMovesCalculator-backto-TickOatMovesCalculator" style="stroke:#9E2A86;stroke-width:1.0;"/><polygon fill="none" points="490.29,741.17,491.38,720,503.72,737.23,490.29,741.17" style="stroke:#9E2A86;stroke-width:1.0;"/></g><!--MD5=[1d6328084c6ec61df69646f0e124b983]
reverse link BoardStateChecker to DefaultBoardStateChecker--><g id="link_BoardStateChecker_DefaultBoardStateChecker"><path codeLine="123" d="M764.56,739.18 C760.16,753.76 755.58,768.93 751.96,780.93 " fill="none" id="BoardStateChecker-backto-DefaultBoardStateChecker" style="stroke:#9E2A86;stroke-width:1.0;"/><polygon fill="none" points="757.86,737.13,770.34,720,771.27,741.17,757.86,737.13" style="stroke:#9E2A86;stroke-width:1.0;"/></g><!--MD5=[c4c7c17f90daa253df1bb2f6f0eb329f]
reverse link BoardStateChecker to WildBoardStateChecker--><g id="link_BoardStateChecker_WildBoardStateChecker"><path codeLine="124" d="M850.47,730.58 C878.66,747.61 910.01,766.55 933.81,780.93 " fill="none" id="BoardStateChecker-backto-WildBoardStateChecker" style="stroke:#9E2A86;stroke-width:1.0;"/><polygon fill="none" points="846.47,736.34,832.97,720,853.71,724.36,846.47,736.34" style="stroke:#9E2A86;stroke-width:1.0;"/></g><!--MD5=[37a01ec41a3505cfbfd5654bd33c2b5d]
reverse link BoardStateChecker to TickOatBoardStateChecker--><g id="link_BoardStateChecker_TickOatBoardStateChecker"><path codeLine="125" d="M878.44,715.12 C950.95,735.1 1048.51,761.98 1117.28,780.93 " fill="none" id="BoardStateChecker-backto-TickOatBoardStateChecker" style="stroke:#9E2A86;stroke-width:1.0;"/><polygon fill="none" points="876.12,721.74,858.69,709.68,879.83,708.25,876.12,721.74" style="stroke:#9E2A86;stroke-width:1.0;"/></g><!--MD5=[1a38f2450b386793f5d6d2a061303dd9]
link ComputerMoveCalculatorFactory to ComputerMoveCalculator--><g id="link_ComputerMoveCalculatorFactory_ComputerMoveCalculator"><path codeLine="126" d="M636.58,287.78 C635.44,313.72 633.84,350.2 632.65,377.45 " fill="none" id="ComputerMoveCalculatorFactory-to-ComputerMoveCalculator" style="stroke:#9E2A86;stroke-width:1.0;"/><polygon fill="#9E2A86" points="632.41,382.77,636.7928,373.9501,632.6247,377.7746,628.8002,373.6065,632.41,382.77" style="stroke:#9E2A86;stroke-width:1.0;"/><text fill="#F7A830" font-family="sans-serif" font-size="13" lengthAdjust="spacing" textLength="43" x="636" y="349.4951">creates</text></g><!--MD5=[dd279d6b820e8b090a648b672079e555]
link ComputerMoveCalculatorFactory to BoardStateChecker--><g id="link_ComputerMoveCalculatorFactory_BoardStateChecker"><path codeLine="127" d="M673.77,287.5 C697.88,311.31 728.09,345.97 744,383 C782.48,472.53 784.25,589.84 782.19,648.78 " fill="none" id="ComputerMoveCalculatorFactory-to-BoardStateChecker" style="stroke:#9E2A86;stroke-width:1.0;"/><polygon fill="#9E2A86" points="782,653.95,786.3313,645.1047,782.1856,648.9534,778.3368,644.8077,782,653.95" style="stroke:#9E2A86;stroke-width:1.0;"/><text fill="#F7A830" font-family="sans-serif" font-size="13" lengthAdjust="spacing" textLength="43" x="776" y="493.4951">creates</text></g><!--MD5=[7f5b7f6775f0b91987a3bec880843019]
link ComputerMoveCalculatorFactory to PossibleMovesCalculator--><g id="link_ComputerMoveCalculatorFactory_PossibleMovesCalculator"><path codeLine="128" d="M595.64,287.73 C568.35,311.02 534.76,344.98 517,383 C475.76,471.25 475.72,589.12 478.96,648.48 " fill="none" id="ComputerMoveCalculatorFactory-to-PossibleMovesCalculator" style="stroke:#9E2A86;stroke-width:1.0;"/><polygon fill="#9E2A86" points="479.26,653.69,482.74,644.4765,478.9748,648.6981,474.7531,644.9329,479.26,653.69" style="stroke:#9E2A86;stroke-width:1.0;"/><text fill="#F7A830" font-family="sans-serif" font-size="13" lengthAdjust="spacing" textLength="43" x="489" y="493.4951">creates</text></g><!--MD5=[4256dcaa5ead8f082f3bd928befcb02a]
reverse link TileController to AnimationDrawer--><g id="link_TileController_AnimationDrawer"><path codeLine="129" d="M1593,129.92 C1593,159.74 1593,195.8 1593,221.25 " fill="none" id="TileController-backto-AnimationDrawer" style="stroke:#9E2A86;stroke-width:1.0;"/><polygon fill="#9E2A86" points="1593,116.72,1589,122.72,1593,128.72,1597,122.72,1593,116.72" style="stroke:#9E2A86;stroke-width:1.0;"/></g><!--MD5=[1a8644f6f62c7e638bfbc1260e05e17f]
reverse link AnimationDrawer to AnimationPicker--><g id="link_AnimationDrawer_AnimationPicker"><path codeLine="130" d="M1593,300.81 C1593,326.96 1593,359.22 1593,382.77 " fill="none" id="AnimationDrawer-backto-AnimationPicker" style="stroke:#9E2A86;stroke-width:1.0;"/><polygon fill="#9E2A86" points="1593,287.78,1589,293.78,1593,299.78,1597,293.78,1593,287.78" style="stroke:#9E2A86;stroke-width:1.0;"/></g><!--MD5=[7c128226e4bf9676e7a24ac6a0ae0fe1]
link GameState to GameType--><g id="link_GameState_GameType"><path codeLine="131" d="M1419,143.11 C1419,163.23 1419,184.94 1419,203.73 " fill="none" id="GameState-GameType" style="stroke:#9E2A86;stroke-width:1.0;"/></g><!--MD5=[302d082af035b718549ed8b43add29a3]
@startuml 3-tac-toe
!include style.iuml

class BoardState {
    - boardMatrix : int[,]
    - lineSums : int[]
    - columnSums : int[]
    - diagonalSums : int[]
    - turnNum : int
}

class GameState
{
    gameType : GameType
    singlePlayer : bool
    gameOver : bool
    playerTurn : bool
    animationPlaying : bool
}

enum GameType{
    TicTacToe
    TickOatTwo
    WildTicTacToe
}

class GameOrchestrator {
    + Start()
    + Update()
}

class BoardStateUpdater {
    + update()
}


interface ComputerMoveCalculator {
    + calculate() : Vector2
}

class HardComputerMoveCalc {
    + calculate() : Vector2
}

interface PossibleMovesCalculator {
    + calculate() : List<Vector2> 
}

class DefaultMovesCalculator {
}

class WildMovesCalculator {
}

class TickOatMovesCalculator {
}

interface BoardStateChecker {
    + check() : int
}

class DefaultBoardStateChecker {
}

class WildBoardStateChecker {
}

class TickOatBoardStateChecker {
}

class ComputerMoveCalculatorFactory {
    + make() : ComputerMoveCalculator
}

class GameUpdateValidator {
    - validationRules : List<GameUpdateValidationRule>
    + validate() : bool
}

interface GameUpdateValidationRule {
    + isValid() : bool
}

class SinglePlayerValidationRule {
}

class AnimationPlayingValidationRule {
}

class PlayerTurnValidationRule {
}

class GameOverValidationRule {
}

class TileController {
    + Start()
    + Update()
}

class AnimationPicker {
    + pick() : string
}

class AnimationDrawer {
    + draw()
}


GameOrchestrator *- - BoardStateUpdater
GameOrchestrator *- - ComputerMoveCalculatorFactory
GameOrchestrator *- - GameUpdateValidator
GameUpdateValidator *- - GameUpdateValidationRule
GameUpdateValidationRule <|- - AnimationPlayingValidationRule
GameUpdateValidationRule <|- - PlayerTurnValidationRule
GameUpdateValidationRule <|- - GameOverValidationRule
GameUpdateValidationRule <|- - SinglePlayerValidationRule
ComputerMoveCalculator <|- - HardComputerMoveCalc
HardComputerMoveCalc *- - PossibleMovesCalculator
HardComputerMoveCalc *- - BoardStateChecker
PossibleMovesCalculator <|- - DefaultMovesCalculator
PossibleMovesCalculator <|- - WildMovesCalculator
PossibleMovesCalculator <|- - TickOatMovesCalculator
BoardStateChecker <|- - DefaultBoardStateChecker
BoardStateChecker <|- - WildBoardStateChecker
BoardStateChecker <|- - TickOatBoardStateChecker
ComputerMoveCalculator <-up- ComputerMoveCalculatorFactory : creates
BoardStateChecker <-up- ComputerMoveCalculatorFactory : creates
PossibleMovesCalculator <-up- ComputerMoveCalculatorFactory : creates
TileController *- - AnimationDrawer
AnimationDrawer *- - AnimationPicker
GameState - - GameType
@enduml

@startuml 3-tac-toe
skinparam{
    ArrowFontColor #F7A830
    TitleFontColor #F7A830
    ObjectFontColor #F7A830
    ObjectAttributeFontColor #F7A830
    LegendFontColor #F7A830
    InterfaceFontColor #F7A830
    HeaderFontColor #F7A830
    DomainFontColor #F7A830
    ClassStereotypeFontColor #F7A830
    ClassFontColor #F7A830
    ClassAttributeFontColor #F7A830
    CircledCharacterFontColor Black
    StartColor #9E2A86
    ActivityEndColor #9E2A86
    StateEndColor #9E2A86
    ActivityBackgroundColor #23272D
    ActivityBorderColor #9E2A86
    ActivityDiamondBackgroundColor #23272D
    ActivityDiamondBorderColor #9E2A86
    BarColor #9E2A86
    InterfaceBackgroundColor #23272D
    InterfaceBorderColor #9E2A86
    ClassBackgroundColor #23272D
    ClassArrowColor #9E2A86
    ClassBorderColor #9E2A86
    ClassHeaderBackgroundColor #2E333A
    PackageBackgroundColor #2E333A
    ArrowColor #9E2A86
    ActorBorderColor #9E2A86
    ActorBackgroundColor #23272D
    ParticipantBackgroundColor #23272D
    ParticipantBorderColor #9E2A86
    LifeLineBorderColor #9E2A86
    LifeLineBackgroundColor #2E333A
    SequenceLifeLineBorderColor #9E2A86
    SequenceLifeLineBackgroundColor #2E333A
}

class BoardState {
    - boardMatrix : int[,]
    - lineSums : int[]
    - columnSums : int[]
    - diagonalSums : int[]
    - turnNum : int
}

class GameState
{
    gameType : GameType
    singlePlayer : bool
    gameOver : bool
    playerTurn : bool
    animationPlaying : bool
}

enum GameType{
    TicTacToe
    TickOatTwo
    WildTicTacToe
}

class GameOrchestrator {
    + Start()
    + Update()
}

class BoardStateUpdater {
    + update()
}


interface ComputerMoveCalculator {
    + calculate() : Vector2
}

class HardComputerMoveCalc {
    + calculate() : Vector2
}

interface PossibleMovesCalculator {
    + calculate() : List<Vector2> 
}

class DefaultMovesCalculator {
}

class WildMovesCalculator {
}

class TickOatMovesCalculator {
}

interface BoardStateChecker {
    + check() : int
}

class DefaultBoardStateChecker {
}

class WildBoardStateChecker {
}

class TickOatBoardStateChecker {
}

class ComputerMoveCalculatorFactory {
    + make() : ComputerMoveCalculator
}

class GameUpdateValidator {
    - validationRules : List<GameUpdateValidationRule>
    + validate() : bool
}

interface GameUpdateValidationRule {
    + isValid() : bool
}

class SinglePlayerValidationRule {
}

class AnimationPlayingValidationRule {
}

class PlayerTurnValidationRule {
}

class GameOverValidationRule {
}

class TileController {
    + Start()
    + Update()
}

class AnimationPicker {
    + pick() : string
}

class AnimationDrawer {
    + draw()
}


GameOrchestrator *- - BoardStateUpdater
GameOrchestrator *- - ComputerMoveCalculatorFactory
GameOrchestrator *- - GameUpdateValidator
GameUpdateValidator *- - GameUpdateValidationRule
GameUpdateValidationRule <|- - AnimationPlayingValidationRule
GameUpdateValidationRule <|- - PlayerTurnValidationRule
GameUpdateValidationRule <|- - GameOverValidationRule
GameUpdateValidationRule <|- - SinglePlayerValidationRule
ComputerMoveCalculator <|- - HardComputerMoveCalc
HardComputerMoveCalc *- - PossibleMovesCalculator
HardComputerMoveCalc *- - BoardStateChecker
PossibleMovesCalculator <|- - DefaultMovesCalculator
PossibleMovesCalculator <|- - WildMovesCalculator
PossibleMovesCalculator <|- - TickOatMovesCalculator
BoardStateChecker <|- - DefaultBoardStateChecker
BoardStateChecker <|- - WildBoardStateChecker
BoardStateChecker <|- - TickOatBoardStateChecker
ComputerMoveCalculator <-up- ComputerMoveCalculatorFactory : creates
BoardStateChecker <-up- ComputerMoveCalculatorFactory : creates
PossibleMovesCalculator <-up- ComputerMoveCalculatorFactory : creates
TileController *- - AnimationDrawer
AnimationDrawer *- - AnimationPicker
GameState - - GameType
@enduml

PlantUML version 1.2022.7(Mon Aug 22 14:01:30 BRT 2022)
(GPL source distribution)
Java Runtime: Java(TM) SE Runtime Environment
JVM: Java HotSpot(TM) 64-Bit Server VM
Default Encoding: UTF-8
Language: en
Country: US
--></g></svg>